<?xml version="1.0" standalone="no"?><!-- Generator: Gravit.io --><svg xmlns="http://www.w3.org/2000/svg" xmlns:xlink="http://www.w3.org/1999/xlink" style="isolation:isolate" viewBox="584 207 100 100" width="100" height="100"><g id="verdaccio-tiny"><path d=" M 621 207 L 647 207 C 667.421 207 684 223.579 684 244 L 684 270 C 684 290.421 667.421 307 647 307 L 621 307 C 600.579 307 584 290.421 584 270 L 584 244 C 584 223.579 600.579 207 621 207 Z " fill-rule="evenodd" fill="rgb(247,248,246)"/><g id="Group"><mask id="_mask_aLJ2choBe6rGRxbST4YxzucnXJoiLXLS"><path d=" M 654 258.6 L 638.8 289 L 630 289 L 606.4 241.8 L 621.6 241.8 L 634.4 267.4 L 638.8 258.6 L 654 258.6 L 654 258.6 Z " fill-rule="evenodd" fill="white" stroke="none"/></mask><path d=" M 654 258.6 L 638.8 289 L 630 289 L 606.4 241.8 L 621.6 241.8 L 634.4 267.4 L 638.8 258.6 L 654 258.6 L 654 258.6 Z " fill-rule="evenodd" fill="rgb(64,82,54)" mask="url(#_mask_aLJ2choBe6rGRxbST4YxzucnXJoiLXLS)" vector-effect="non-scaling-stroke" stroke-width="4.8" stroke="rgb(64,82,54)" stroke-linejoin="miter" stroke-linecap="square" stroke-miterlimit="10"/><mask id="_mask_VpFb8HfoVEV9oMhbDP4WCZkNHeJnsgJB"><path d=" M 656.8 253 L 641.6 253 L 647.2 241.8 L 662.4 241.8 L 656.8 253 L 656.8 253 Z " fill-rule="evenodd" fill="white" stroke="none"/></mask><path d=" M 656.8 253 L 641.6 253 L 647.2 241.8 L 662.4 241.8 L 656.8 253 L 656.8 253 Z " fill-rule="evenodd" fill="rgb(205,64,0)" mask="url(#_mask_VpFb8HfoVEV9oMhbDP4WCZkNHeJnsgJB)" vector-effect="non-scaling-stroke" stroke-width="4.8" stroke="rgb(205,64,0)" stroke-linejoin="miter" stroke-linecap="square" stroke-miterlimit="10"/><mask id="_mask_PurdF8WNWO5rV7THGkszebck9RL78xOC"><path d=" M 638.8 289 L 630 289 L 606.4 241.8 L 621.6 241.8 L 641.977 282.691 L 638.8 289 Z " fill-rule="evenodd" fill="white" stroke="none"/></mask><path d=" M 638.8 289 L 630 289 L 606.4 241.8 L 621.6 241.8 L 641.977 282.691 L 638.8 289 Z " fill-rule="evenodd" fill="rgb(74,94,63)" mask="url(#_mask_PurdF8WNWO5rV7THGkszebck9RL78xOC)" vector-effect="non-scaling-stroke" stroke-width="4.8" stroke="rgb(64,82,54)" stroke-linejoin="miter" stroke-linecap="square" stroke-miterlimit="10"/><mask id="_mask_0WvewKeO3yEVIIsCnImQYZQpsThG8ZRt"><line x1="643.6" y1="243" x2="658.821" y2="243" fill="white" stroke="none"/></mask><line x1="643.6" y1="243" x2="658.821" y2="243" mask="url(#_mask_0WvewKeO3yEVIIsCnImQYZQpsThG8ZRt)" vector-effect="non-scaling-stroke" stroke-width="4.8" stroke="rgb(205,64,0)" stroke-linejoin="miter" stroke-linecap="square" stroke-miterlimit="10"/><mask id="_mask_mfE3hDhlZLY11weXkNmcXFVIDG3xk8wG"><line x1="639.6" y1="247" x2="654.821" y2="247" fill="white" stroke="none"/></mask><line x1="639.6" y1="247" x2="654.821" y2="247" mask="url(#_mask_mfE3hDhlZLY11weXkNmcXFVIDG3xk8wG)" vector-effect="non-scaling-stroke" stroke-width="4.8" stroke="rgb(205,64,0)" stroke-linejoin="miter" stroke-linecap="square" stroke-miterlimit="10"/><mask id="_mask_2JlRHmgXw2jNKAshMq4eDqO60Nx4xCJU"><line x1="635.6" y1="251.8" x2="650.821" y2="251.8" fill="white" stroke="none"/></mask><line x1="635.6" y1="251.8" x2="650.821" y2="251.8" mask="url(#_mask_2JlRHmgXw2jNKAshMq4eDqO60Nx4xCJU)" vector-effect="non-scaling-stroke" stroke-width="4.8" stroke="rgb(205,64,0)" stroke-linejoin="miter" stroke-linecap="square" stroke-miterlimit="10"/><g transform="matrix(1,0,0,1,604.4,216)"><text transform="matrix(1,0,0,1,8.497,14.379)" style="font-family:&quot;Open Sans&quot;;font-weight:300;font-size:10px;font-style:italic;fill:#405236;stroke:none;">Verdaccio</text></g></g></g></svg>