<?xml version="1.0" encoding="UTF-8"?>
<svg width="100px" height="100px" viewBox="0 0 100 100" version="1.1" xmlns="http://www.w3.org/2000/svg" xmlns:xlink="http://www.w3.org/1999/xlink">
    <!-- Generator: Sketch 47.1 (45422) - http://www.bohemiancoding.com/sketch -->
    <title>Logo-Black</title>
    <desc>Created with Sketch.</desc>
    <defs>
        <polygon id="path-1" points="48 17.6 32.8 48 24 48 0.4 0.8 15.6 0.8 28.4 26.4 32.8 17.6 48 17.6"></polygon>
        <filter x="-20.0%" y="-11.7%" width="139.9%" height="140.3%" filterUnits="objectBoundingBox" id="filter-2">
            <feOffset dx="0" dy="4" in="SourceAlpha" result="shadowOffsetOuter1"></feOffset>
            <feGaussianBlur stdDeviation="2.5" in="shadowOffsetOuter1" result="shadowBlurOuter1"></feGaussianBlur>
            <feComposite in="shadowBlurOuter1" in2="SourceAlpha" operator="out" result="shadowBlurOuter1"></feComposite>
            <feColorMatrix values="0 0 0 0 0   0 0 0 0 0   0 0 0 0 0  0 0 0 0.0906646286 0" type="matrix" in="shadowBlurOuter1"></feColorMatrix>
        </filter>
        <path d="M40.810519,12 L50.8,12 L50.8,12 L56.4,0.8 L47.610519,0.8 L36.4,0.8 L36.4,3.2 L40,3.2 L39.2,4.8 L32.4,4.8 L32.4,7.2 L38,7.2 L36.8,9.6 L28.4,9.6 L28.4,12 L40.810519,12 Z" id="path-3"></path>
        <filter x="-33.9%" y="-49.1%" width="167.9%" height="269.6%" filterUnits="objectBoundingBox" id="filter-4">
            <feOffset dx="0" dy="4" in="SourceAlpha" result="shadowOffsetOuter1"></feOffset>
            <feGaussianBlur stdDeviation="2.5" in="shadowOffsetOuter1" result="shadowBlurOuter1"></feGaussianBlur>
            <feColorMatrix values="0 0 0 0 0   0 0 0 0 0   0 0 0 0 0  0 0 0 0.0906646286 0" type="matrix" in="shadowBlurOuter1"></feColorMatrix>
        </filter>
    </defs>
    <g id="Page-1" stroke="none" stroke-width="1" fill="none" fill-rule="evenodd">
        <g id="Verdaccio-BlackWhite">
            <rect id="BG" fill="#000000" x="0" y="0" width="100" height="100" rx="37"></rect>
            <g id="Group" transform="translate(22.000000, 29.000000)">
                <g id="Combined-Shape">
                    <use fill="black" fill-opacity="1" filter="url(#filter-2)" xlink:href="#path-1"></use>
                    <use fill-opacity="0.6" fill="#FFFFFF" fill-rule="evenodd" xlink:href="#path-1"></use>
                </g>
                <g id="Combined-Shape">
                    <use fill="black" fill-opacity="1" filter="url(#filter-4)" xlink:href="#path-3"></use>
                    <use fill="#FFFFFF" fill-rule="evenodd" xlink:href="#path-3"></use>
                </g>
                <polygon id="Combined-Shape" fill="#FFFFFF" points="32.8 48 24 48 0.4 0.8 15.6 0.8 35.9772662 41.6908081"></polygon>
            </g>
        </g>
    </g>
</svg>