<?xml version="1.0" standalone="no"?><!-- Generator: Gravit.io --><svg xmlns="http://www.w3.org/2000/svg" xmlns:xlink="http://www.w3.org/1999/xlink" style="isolation:isolate" viewBox="584 207 100 100" width="100" height="100"><g id="verdaccio-tiny"><path d=" M 621 207 L 647 207 C 667.421 207 684 223.579 684 244 L 684 270 C 684 290.421 667.421 307 647 307 L 621 307 C 600.579 307 584 290.421 584 270 L 584 244 C 584 223.579 600.579 207 621 207 Z " fill-rule="evenodd" fill="rgb(247,248,246)"/><g id="Group"><mask id="_mask_TpeGGWKzkZyRlZnBNvsTW4m5XOYp8rPn"><path d=" M 654 249.6 L 638.8 280 L 630 280 L 606.4 232.8 L 621.6 232.8 L 634.4 258.4 L 638.8 249.6 L 654 249.6 L 654 249.6 Z " fill-rule="evenodd" fill="white" stroke="none"/></mask><path d=" M 654 249.6 L 638.8 280 L 630 280 L 606.4 232.8 L 621.6 232.8 L 634.4 258.4 L 638.8 249.6 L 654 249.6 L 654 249.6 Z " fill-rule="evenodd" fill="rgb(64,82,54)" mask="url(#_mask_TpeGGWKzkZyRlZnBNvsTW4m5XOYp8rPn)" vector-effect="non-scaling-stroke" stroke-width="4.8" stroke="rgb(64,82,54)" stroke-linejoin="miter" stroke-linecap="square" stroke-miterlimit="10"/><mask id="_mask_LQWMCb4dioFQVBqOSQBk62eQ75m4tAS0"><path d=" M 656.8 244 L 641.6 244 L 647.2 232.8 L 662.4 232.8 L 656.8 244 L 656.8 244 Z " fill-rule="evenodd" fill="white" stroke="none"/></mask><path d=" M 656.8 244 L 641.6 244 L 647.2 232.8 L 662.4 232.8 L 656.8 244 L 656.8 244 Z " fill-rule="evenodd" fill="rgb(205,64,0)" mask="url(#_mask_LQWMCb4dioFQVBqOSQBk62eQ75m4tAS0)" vector-effect="non-scaling-stroke" stroke-width="4.8" stroke="rgb(205,64,0)" stroke-linejoin="miter" stroke-linecap="square" stroke-miterlimit="10"/><mask id="_mask_x86kQ90JupBiwv7kcsN2ukBDbOLkBAze"><path d=" M 638.8 280 L 630 280 L 606.4 232.8 L 621.6 232.8 L 641.977 273.691 L 638.8 280 Z " fill-rule="evenodd" fill="white" stroke="none"/></mask><path d=" M 638.8 280 L 630 280 L 606.4 232.8 L 621.6 232.8 L 641.977 273.691 L 638.8 280 Z " fill-rule="evenodd" fill="rgb(74,94,63)" mask="url(#_mask_x86kQ90JupBiwv7kcsN2ukBDbOLkBAze)" vector-effect="non-scaling-stroke" stroke-width="4.8" stroke="rgb(64,82,54)" stroke-linejoin="miter" stroke-linecap="square" stroke-miterlimit="10"/><mask id="_mask_AwBb2BJJIBwbHBC4JbvZjdtJnlGVHGEa"><line x1="643.6" y1="234" x2="658.821" y2="234" fill="white" stroke="none"/></mask><line x1="643.6" y1="234" x2="658.821" y2="234" mask="url(#_mask_AwBb2BJJIBwbHBC4JbvZjdtJnlGVHGEa)" vector-effect="non-scaling-stroke" stroke-width="4.8" stroke="rgb(205,64,0)" stroke-linejoin="miter" stroke-linecap="square" stroke-miterlimit="10"/><mask id="_mask_vCDhnuuYBbA8AOGTeV0Bu152KaOr5I8v"><line x1="639.6" y1="238" x2="654.821" y2="238" fill="white" stroke="none"/></mask><line x1="639.6" y1="238" x2="654.821" y2="238" mask="url(#_mask_vCDhnuuYBbA8AOGTeV0Bu152KaOr5I8v)" vector-effect="non-scaling-stroke" stroke-width="4.8" stroke="rgb(205,64,0)" stroke-linejoin="miter" stroke-linecap="square" stroke-miterlimit="10"/><mask id="_mask_A6Cw6lWSJitrQex7lgDJP9a9D0orokeo"><line x1="635.6" y1="242.8" x2="650.821" y2="242.8" fill="white" stroke="none"/></mask><line x1="635.6" y1="242.8" x2="650.821" y2="242.8" mask="url(#_mask_A6Cw6lWSJitrQex7lgDJP9a9D0orokeo)" vector-effect="non-scaling-stroke" stroke-width="4.8" stroke="rgb(205,64,0)" stroke-linejoin="miter" stroke-linecap="square" stroke-miterlimit="10"/><g transform="matrix(1,0,0,1,604.4,281)"><text transform="matrix(1,0,0,1,8.497,14.379)" style="font-family:&quot;Open Sans&quot;;font-weight:300;font-size:10px;font-style:italic;fill:#405236;stroke:none;">Verdaccio</text></g></g></g></svg>