
<svg width="960px" height="372px" viewBox="0 0 960 372" version="1.1" xmlns="http://www.w3.org/2000/svg" xmlns:xlink="http://www.w3.org/1999/xlink">
    <defs>
        <rect id="path-1" x="0" y="0" width="960" height="369"></rect>
        <filter x="-0.7%" y="-2.0%" width="101.4%" height="103.5%" filterUnits="objectBoundingBox" id="filter-3">
            <feOffset dx="0" dy="-1" in="SourceAlpha" result="shadowOffsetOuter1"></feOffset>
            <feGaussianBlur stdDeviation="2" in="shadowOffsetOuter1" result="shadowBlurOuter1"></feGaussianBlur>
            <feColorMatrix values="0 0 0 0 0   0 0 0 0 0   0 0 0 0 0  0 0 0 0.0744168931 0" type="matrix" in="shadowBlurOuter1"></feColorMatrix>
        </filter>
    </defs>
    <g id="Page-1" stroke="none" stroke-width="1" fill="none" fill-rule="evenodd">
        <g id="verdaccio.github.io">
            <g id="Group-5">
                <mask id="mask-2" fill="white">
                    <use xlink:href="#path-1"></use>
                </mask>
                <g id="Rectangle">
                    <use fill="black" fill-opacity="1" filter="url(#filter-3)" xlink:href="#path-1"></use>
                    <use fill="#F7F8F6" fill-rule="evenodd" xlink:href="#path-1"></use>
                </g>
                <g id="Group" opacity="0.417346014" mask="url(#mask-2)" fill="#4A5E3F">
                    <g transform="translate(740.694191, 349.064745) rotate(-35.000000) translate(-740.694191, -349.064745) translate(400.694191, 64.564745)" id="Combined-Shape">
                        <polygon fill-opacity="0.141332654" points="580.60076 202.388704 395.198837 568.615882 287.860881 568.615882 0 0 185.401923 6.84789635e-14 341.529859 308.401834 395.198837 202.388704 580.60076 202.388704"></polygon>
                        <path d="M426.889943,133.165312 L339.571545,133.165312 L339.571545,104.629888 L441.443009,104.629888 L455.996075,76.094464 L388.081766,76.094464 L388.081766,47.55904 L470.549142,47.55904 L480.251186,28.535424 L436.591987,28.535424 L436.591987,0 L572.548175,0 L679.143091,0 L611.228782,133.165312 L426.889943,133.165312 Z" fill-opacity="0.233978714"></path>
                        <polygon fill-opacity="0.113988904" points="396.562186 568.615882 288.853938 568.615882 0 0 186.041519 0 435.45057 492.609383"></polygon>
                    </g>
                </g>
                <g id="Group-Copy" opacity="0.417346014" mask="url(#mask-2)" fill="#4A5E3F">
                    <g transform="translate(180.322830, 94.008655) rotate(-35.000000) translate(-180.322830, -94.008655) translate(-79.177170, -123.491345)" id="Combined-Shape">
                        <polygon fill-opacity="0.141332654" points="443.271172 154.517672 301.722394 434.121079 219.773102 434.121079 0 0 141.548778 5.22816235e-14 260.747748 235.4555 301.722394 154.517672 443.271172 154.517672"></polygon>
                        <polygon fill-opacity="0.113988904" points="302.76327 434.121079 220.531271 434.121079 0 0 142.03709 0 332.453379 376.092409"></polygon>
                    </g>
                </g>
                <g id="Group-Copy" opacity="0.417346014" mask="url(#mask-2)" fill="#4A5E3F">
                    <g transform="translate(119.506397, 347.831732) rotate(-90.000000) translate(-119.506397, -347.831732) translate(3.006397, 250.331732)" id="Combined-Shape">
                        <polygon fill-opacity="0.141332654" points="198.951506 69.3515067 135.420773 194.844709 98.6398225 194.844709 0 0 63.5307331 2.34653377e-14 117.030298 105.678486 135.420773 69.3515067 198.951506 69.3515067"></polygon>
                        <path d="M146.280203,45.6310794 L116.359253,45.6310794 L116.359253,35.852991 L151.267028,35.852991 L156.253853,26.0749025 L132.982003,26.0749025 L132.982003,16.2968141 L161.240679,16.2968141 L164.565229,9.77808845 L149.604753,9.77808845 L149.604753,0 L196.192168,0 L232.718505,0 L209.446655,45.6310794 L146.280203,45.6310794 Z" fill-opacity="0.233978714"></path>
                        <polygon fill-opacity="0.113988904" points="135.887945 194.844709 98.9801083 194.844709 0 0 63.7499002 0 149.21363 168.799949"></polygon>
                    </g>
                </g>
            </g>
        </g>
    </g>
</svg>