<?xml version="1.0" encoding="UTF-8"?>
<svg width="301px" height="100px" viewBox="0 0 301 100" version="1.1" xmlns="http://www.w3.org/2000/svg" xmlns:xlink="http://www.w3.org/1999/xlink">
    <!-- Generator: Sketch 51.2 (57519) - http://www.bohemiancoding.com/sketch -->
    <title>verdaccio-banner</title>
    <desc>Created with Sketch.</desc>
    <defs></defs>
    <g id="verdaccio-banner" stroke="none" stroke-width="1" fill="none" fill-rule="evenodd">
        <g id="verdaccio-logo-Full">
            <rect id="BG" fill="#F7F8F6" fill-rule="nonzero" x="0" y="0" width="301" height="100" rx="37"></rect>
            <g id="Group-2" transform="translate(27.000000, 22.000000)">
                <g id="Group-2-Copy" transform="translate(81.200000, 0.400000)" fill="#405236" font-family="OpenSansLight-Italic, Open Sans" font-size="42.4" font-style="italic" font-weight="300">
                    <g id="Verdaccio">
                        <text>
                            <tspan x="0" y="45">Verdaccio</tspan>
                        </text>
                    </g>
                </g>
                <g id="Group" transform="translate(0.000000, 5.500000)">
                    <g id="Combined-Shape">
                        <g id="path-1-link" fill="#000000" fill-rule="nonzero">
                            <polygon id="path-1" points="48 17.6 32.8 48 24 48 0.4 0.8 15.6 0.8 28.4 26.4 32.8 17.6"></polygon>
                        </g>
                        <g id="path-1-link" fill="#405236">
                            <polygon id="path-1" points="48 17.6 32.8 48 24 48 0.4 0.8 15.6 0.8 28.4 26.4 32.8 17.6"></polygon>
                        </g>
                        <polygon id="Shape" stroke="#405236" stroke-width="2.4" points="46.0583592 18.8 33.5416408 18.8 28.4 29.0832816 14.8583592 2 2.34164079 2 24.7416408 46.8 32.0583592 46.8"></polygon>
                    </g>
                    <g id="Path" transform="translate(35.000000, 0.000000)">
                        <g id="path-3-link" fill="#000000" fill-rule="nonzero">
                            <polygon id="path-3" points="15.8 12 0.6 12 6.2 0.8 21.4 0.8"></polygon>
                        </g>
                        <g id="path-3-link" fill="#CD4000">
                            <polygon id="path-3" points="15.8 12 0.6 12 6.2 0.8 21.4 0.8"></polygon>
                        </g>
                        <polygon id="Shape" stroke="#CD4000" stroke-width="2.4" points="15.0583592 10.8 19.4583592 2 6.9416408 2 2.5416408 10.8"></polygon>
                    </g>
                    <g id="Combined-Shape">
                        <g id="path-5-link" fill="#4A5E3F">
                            <polygon id="path-5" points="32.8 48 24 48 0.4 0.8 15.6 0.8 35.9772662 41.6908081"></polygon>
                        </g>
                        <polygon id="Shape" stroke="#405236" stroke-width="2.4" points="32.0607372 46.8 34.6351125 41.6879866 14.8572527 2 2.34164079 2 24.7416408 46.8"></polygon>
                    </g>
                    <path d="M37.6,2 L52.8210381,2" id="Line-3" stroke="#CD4000" stroke-width="2.4" stroke-linecap="square"></path>
                    <path d="M33.6,6 L48.8210381,6" id="Line-3" stroke="#CD4000" stroke-width="2.4" stroke-linecap="square"></path>
                    <path d="M29.6,10.8 L44.8210381,10.8" id="Line-3" stroke="#CD4000" stroke-width="2.4" stroke-linecap="square"></path>
                </g>
            </g>
        </g>
    </g>
</svg>