<?xml version="1.0" standalone="no"?><!-- Generator: Gravit.io --><svg xmlns="http://www.w3.org/2000/svg" xmlns:xlink="http://www.w3.org/1999/xlink" style="isolation:isolate" viewBox="297 325 301 100" width="301" height="100"><g id="verdaccio"><path d=" M 334 325 L 561 325 C 581.421 325 598 341.579 598 362 L 598 388 C 598 408.421 581.421 425 561 425 L 334 425 C 313.579 425 297 408.421 297 388 L 297 362 C 297 341.579 313.579 325 334 325 Z " fill-rule="evenodd" fill="rgb(247,248,246)"/><g id="Group 2"><g id="Group 2 Copy"><g transform="matrix(1,0,0,1,405.2,347.4)"><text transform="matrix(1,0,0,1,0,44.892)" style="font-family:&quot;Open Sans&quot;;font-weight:300;font-size:42px;font-style:italic;fill:#405236;stroke:none;">Verdaccio</text></g></g><g opacity="0.1011096014492754"><mask id="_mask_fCSTmVJv3QSdnixdB2jztr4W92pbW0FE"><line x1="390" y1="374" x2="390" y2="380.597" fill="white" stroke="none"/></mask><line x1="390" y1="374" x2="390" y2="380.597" mask="url(#_mask_fCSTmVJv3QSdnixdB2jztr4W92pbW0FE)" vector-effect="non-scaling-stroke" stroke-width="3.2" stroke="rgb(15,82,0)" stroke-linejoin="miter" stroke-linecap="square" stroke-miterlimit="10"/></g><g id="Group"><mask id="_mask_AEapS60hj4W5lwbVZkWRptMDQjCCQnXV"><path d=" M 372 370.1 L 356.8 400.5 L 348 400.5 L 324.4 353.3 L 339.6 353.3 L 352.4 378.9 L 356.8 370.1 L 372 370.1 L 372 370.1 Z " fill-rule="evenodd" fill="white" stroke="none"/></mask><path d=" M 372 370.1 L 356.8 400.5 L 348 400.5 L 324.4 353.3 L 339.6 353.3 L 352.4 378.9 L 356.8 370.1 L 372 370.1 L 372 370.1 Z " fill-rule="evenodd" fill="rgb(64,82,54)" mask="url(#_mask_AEapS60hj4W5lwbVZkWRptMDQjCCQnXV)" vector-effect="non-scaling-stroke" stroke-width="4.8" stroke="rgb(64,82,54)" stroke-linejoin="miter" stroke-linecap="square" stroke-miterlimit="10"/><mask id="_mask_IQ7DNpRZXZtt3eyCzjEeZb9eMnCTbxVr"><path d=" M 374.8 364.5 L 359.6 364.5 L 365.2 353.3 L 380.4 353.3 L 374.8 364.5 L 374.8 364.5 Z " fill-rule="evenodd" fill="white" stroke="none"/></mask><path d=" M 374.8 364.5 L 359.6 364.5 L 365.2 353.3 L 380.4 353.3 L 374.8 364.5 L 374.8 364.5 Z " fill-rule="evenodd" fill="rgb(205,64,0)" mask="url(#_mask_IQ7DNpRZXZtt3eyCzjEeZb9eMnCTbxVr)" vector-effect="non-scaling-stroke" stroke-width="4.8" stroke="rgb(205,64,0)" stroke-linejoin="miter" stroke-linecap="square" stroke-miterlimit="10"/><mask id="_mask_Ya7dwXQpCePYQlvQmIYJlgPrxT9FmhAl"><path d=" M 356.8 400.5 L 348 400.5 L 324.4 353.3 L 339.6 353.3 L 359.977 394.191 L 356.8 400.5 Z " fill-rule="evenodd" fill="white" stroke="none"/></mask><path d=" M 356.8 400.5 L 348 400.5 L 324.4 353.3 L 339.6 353.3 L 359.977 394.191 L 356.8 400.5 Z " fill-rule="evenodd" fill="rgb(74,94,63)" mask="url(#_mask_Ya7dwXQpCePYQlvQmIYJlgPrxT9FmhAl)" vector-effect="non-scaling-stroke" stroke-width="4.8" stroke="rgb(64,82,54)" stroke-linejoin="miter" stroke-linecap="square" stroke-miterlimit="10"/><mask id="_mask_a52iOKSly0sSYRe2ur3JsZdbSujZeYaS"><line x1="361.6" y1="354.5" x2="376.821" y2="354.5" fill="white" stroke="none"/></mask><line x1="361.6" y1="354.5" x2="376.821" y2="354.5" mask="url(#_mask_a52iOKSly0sSYRe2ur3JsZdbSujZeYaS)" vector-effect="non-scaling-stroke" stroke-width="4.8" stroke="rgb(205,64,0)" stroke-linejoin="miter" stroke-linecap="square" stroke-miterlimit="10"/><mask id="_mask_9P3mzte4BcU1pG1EBPp7BloWoicEEU8d"><line x1="357.6" y1="358.5" x2="372.821" y2="358.5" fill="white" stroke="none"/></mask><line x1="357.6" y1="358.5" x2="372.821" y2="358.5" mask="url(#_mask_9P3mzte4BcU1pG1EBPp7BloWoicEEU8d)" vector-effect="non-scaling-stroke" stroke-width="4.8" stroke="rgb(205,64,0)" stroke-linejoin="miter" stroke-linecap="square" stroke-miterlimit="10"/><mask id="_mask_XoSOCvZ40H8L7kjslOiP3IZuNrYPgQ3F"><line x1="353.6" y1="363.3" x2="368.821" y2="363.3" fill="white" stroke="none"/></mask><line x1="353.6" y1="363.3" x2="368.821" y2="363.3" mask="url(#_mask_XoSOCvZ40H8L7kjslOiP3IZuNrYPgQ3F)" vector-effect="non-scaling-stroke" stroke-width="4.8" stroke="rgb(205,64,0)" stroke-linejoin="miter" stroke-linecap="square" stroke-miterlimit="10"/></g></g></g></svg>