<?xml version="1.0" standalone="no"?><!-- Generator: Gravit.io --><svg xmlns="http://www.w3.org/2000/svg" xmlns:xlink="http://www.w3.org/1999/xlink" style="isolation:isolate" viewBox="417 207 100 100" width="100" height="100"><g id="verdaccio-blackwhite"><path d=" M 454 207 L 480 207 C 500.421 207 517 223.579 517 244 L 517 270 C 517 290.421 500.421 307 480 307 L 454 307 C 433.579 307 417 290.421 417 270 L 417 244 C 417 223.579 433.579 207 454 207 Z " fill-rule="evenodd" fill="rgb(0,0,0)"/><g id="Group"><path d=" M 487 253.729 L 471.672 284 L 462.798 284 L 439 237 L 454.328 237 L 467.235 262.492 L 471.672 253.729 L 487 253.729 L 487 253.729 Z " fill-rule="evenodd" fill="rgb(255,255,255)" fill-opacity="0.6"/><path d=" M 484.621 248 L 489.4 248 L 495 237 L 492.621 237 L 479.8 237 L 475 237 L 475 239.357 L 478.6 239.357 L 477.8 240.929 L 471 240.929 L 471 243.286 L 476.6 243.286 L 475.4 245.643 L 467 245.643 L 467 248 L 484.621 248 Z " fill-rule="evenodd" fill="rgb(255,255,255)"/><path d=" M 471.785 284 L 462.88 284 L 439 237 L 454.381 237 L 475 277.718 L 471.785 284 Z " fill-rule="evenodd" fill="rgb(255,255,255)"/></g></g></svg>