<?xml version="1.0" encoding="UTF-8" standalone="no"?>
<!-- Created with Inkscape (http://www.inkscape.org/) -->

<svg
   xmlns:dc="http://purl.org/dc/elements/1.1/"
   xmlns:cc="http://creativecommons.org/ns#"
   xmlns:rdf="http://www.w3.org/1999/02/22-rdf-syntax-ns#"
   xmlns:svg="http://www.w3.org/2000/svg"
   xmlns="http://www.w3.org/2000/svg"
   xmlns:sodipodi="http://sodipodi.sourceforge.net/DTD/sodipodi-0.dtd"
   xmlns:inkscape="http://www.inkscape.org/namespaces/inkscape"
   version="1.1"
   width="100%"
   height="100%"
   viewBox="0 0 300 300"
   id="svg2"
   xml:space="preserve"
   style="fill-rule:evenodd;stroke-linejoin:round;stroke-miterlimit:1.41420996"
   inkscape:version="0.48.4 r9939"
   sodipodi:docname="aurelia-icon.svg"
   inkscape:export-filename="/lab/projects/gooy-wiki/client/src/assets/icons/aurelia-icon-64x64.png"
   inkscape:export-xdpi="19.200001"
   inkscape:export-ydpi="19.200001"><sodipodi:namedview
     pagecolor="#ffffff"
     bordercolor="#666666"
     borderopacity="1"
     objecttolerance="10"
     gridtolerance="10"
     guidetolerance="10"
     inkscape:pageopacity="0"
     inkscape:pageshadow="2"
     inkscape:window-width="1153"
     inkscape:window-height="705"
     id="namedview71"
     showgrid="false"
     inkscape:zoom="0.78666667"
     inkscape:cx="193.13627"
     inkscape:cy="150"
     inkscape:window-x="2596"
     inkscape:window-y="1006"
     inkscape:window-maximized="0"
     inkscape:current-layer="svg2" /><metadata
     id="metadata131"><rdf:RDF><cc:Work
         rdf:about=""><dc:format>image/svg+xml</dc:format><dc:type
           rdf:resource="http://purl.org/dc/dcmitype/StillImage" /><dc:title></dc:title></cc:Work></rdf:RDF></metadata><g
     transform="matrix(1.0955049,0.21858281,-0.21858281,1.0955049,-682.78994,-741.09414)"
     id="Icon"
     inkscape:export-xdpi="153.60001"
     inkscape:export-ydpi="153.60001"><g
       transform="matrix(0.98067,-0.19567,0.19567,0.98067,-1111.46,141.794)"
       id="g5"><path
         d="m 1904.51,793.676 -24.52,16.365 -25.26,-37.855 24.52,-16.365 25.26,37.855 z"
         id="path7"
         style="fill:url(#_Linear1)"
         inkscape:connector-curvature="0" /></g><g
       transform="matrix(0.98067,-0.19567,0.19567,0.98067,687.732,524.632)"
       id="g9"><path
         d="m 234.942,179.915 41.895,62.78 -49.907,33.305 -41.895,-62.781 -7.309,-10.951 49.908,-33.305 7.308,10.952 z"
         id="path11"
         style="fill:url(#_Linear2)"
         inkscape:connector-curvature="0" /></g><g
       transform="matrix(0.98067,-0.19567,0.19567,0.98067,687.732,524.632)"
       id="g13"><path
         d="m 172.083,221.862 9.224,13.822 -37.987,25.35 -16.533,-24.774 8.299,-5.538 29.689,-19.812 7.308,10.952 z"
         id="path15"
         style="fill:url(#_Linear3)"
         inkscape:connector-curvature="0" /></g><g
       transform="matrix(0.98067,-0.19567,0.19567,0.98067,687.732,524.632)"
       id="g17"><path
         d="m 255.696,150.236 10.655,-7.11 16.532,24.774 -24.523,16.365 -9.224,-13.822 13.868,-9.255 -7.308,-10.952 z m -6.56,20.207 -7.308,-10.952 13.868,-9.255 7.308,10.952 -13.868,9.255 z"
         id="path19"
         style="fill:url(#_Linear4)"
         inkscape:connector-curvature="0" /></g><g
       transform="matrix(0.98067,-0.19567,0.19567,0.98067,687.732,524.632)"
       id="g21"><path
         d="m 83.746,153.788 -8.298,5.538 -25.262,-37.855 37.987,-25.35 17.707,26.535 -29.688,19.812 29.688,-19.812 7.555,11.321 -29.689,19.811 z"
         id="path23"
         style="fill:url(#_Linear5)"
         inkscape:connector-curvature="0" /></g><g
       transform="matrix(0.98067,-0.19567,0.19567,0.98067,687.732,524.632)"
       id="g25"><path
         d="m 168.74,80.708 7.554,11.321 -49.908,33.305 -7.554,-11.321 -41.503,-62.192 49.908,-33.305 41.503,62.192 z"
         id="path27"
         style="fill:url(#_Linear6)"
         inkscape:connector-curvature="0" /></g><g
       transform="matrix(0.98067,-0.19567,0.19567,0.98067,687.732,524.632)"
       id="g29"><path
         d="m 204.356,73.303 -13.868,9.254 -7.555,-11.32 -17.707,-26.535 24.523,-16.365 25.262,37.855 -10.655,7.111 z"
         id="path31"
         style="fill:url(#_Linear7)"
         inkscape:connector-curvature="0" /></g><g
       transform="matrix(0.98067,-0.19567,0.19567,0.98067,687.732,524.632)"
       id="g33"><path
         d="m 142.395,241.674 -7.309,-10.952 29.689,-19.812 7.308,10.952 -29.688,19.812 z"
         id="path35"
         style="fill:#714896"
         inkscape:connector-curvature="0" /></g><g
       transform="matrix(0.98067,-0.19567,0.19567,0.98067,687.732,524.632)"
       id="g37"><path
         d="m 249.136,170.443 -7.308,-10.952 13.868,-9.255 7.308,10.952 -13.868,9.255 z"
         id="path39"
         style="fill:#6f4795"
         inkscape:connector-curvature="0" /></g><g
       transform="matrix(0.98067,-0.19567,0.19567,0.98067,687.732,524.632)"
       id="g41"><path
         d="m 83.746,153.788 -7.554,-11.32 29.688,-19.812 7.555,11.321 -29.689,19.811 z"
         id="path43"
         style="fill:#88519f"
         inkscape:connector-curvature="0" /></g><g
       transform="matrix(0.98067,-0.19567,0.19567,0.98067,687.732,524.632)"
       id="g45"><path
         d="m 190.488,82.557 -7.555,-11.32 13.869,-9.255 7.554,11.321 -13.868,9.254 z"
         id="path47"
         style="fill:#85509e"
         inkscape:connector-curvature="0" /></g><g
       transform="matrix(0.98067,-0.19567,0.19567,0.98067,687.732,524.632)"
       id="g49"><path
         d="m 234.942,179.915 -49.907,33.304 -7.309,-10.951 49.908,-33.305 7.308,10.952 z"
         id="path51"
         style="fill:#8d166a"
         inkscape:connector-curvature="0" /></g><g
       transform="matrix(0.98067,-0.19567,0.19567,0.98067,687.732,524.632)"
       id="g53"><path
         d="m 168.74,80.708 7.554,11.321 -49.908,33.305 -7.554,-11.321 49.908,-33.305 z"
         id="path55"
         style="fill:#a70d6f"
         inkscape:connector-curvature="0" /></g><g
       transform="matrix(0.0838394,0.0838394,-0.0838394,0.0838394,897.184,285.926)"
       id="g57"><rect
         width="143.131"
         height="143.131"
         x="1003"
         y="2520"
         id="rect59"
         style="fill:#9e61ad" /></g><g
       transform="matrix(0.0838394,0.0838394,-0.0838394,0.0838394,980.184,441.926)"
       id="g61"><rect
         width="143.131"
         height="143.131"
         x="1003"
         y="2520"
         id="rect63"
         style="fill:#8053a3" /></g><g
       transform="translate(-196.486,-2023.23)"
       id="g65"><path
         d="m 1015.85,2781.73 -52.745,-53.14 187.685,-188.08 54.52,51.77 -189.46,189.45 z"
         id="path67"
         style="fill:url(#_Linear8)"
         inkscape:connector-curvature="0" /></g></g><defs
     id="defs69"><linearGradient
       x1="0"
       y1="0"
       x2="1"
       y2="0"
       id="_Linear1"
       gradientUnits="userSpaceOnUse"
       gradientTransform="matrix(311.539,311.539,-311.539,311.539,1661.51,677.648)"><stop
         id="stop72"
         style="stop-color:#c06fbb;stop-opacity:1"
         offset="0" /><stop
         id="stop74"
         style="stop-color:#6e4d9b;stop-opacity:1"
         offset="1" /></linearGradient><linearGradient
       x1="0"
       y1="0"
       x2="1"
       y2="0"
       id="_Linear2"
       gradientUnits="userSpaceOnUse"
       gradientTransform="matrix(-168.486,-248.455,240.79,-173.85,250.023,259.328)"><stop
         id="stop77"
         style="stop-color:#6e4d9b;stop-opacity:1"
         offset="0" /><stop
         id="stop79"
         style="stop-color:#77327a;stop-opacity:1"
         offset="0.14" /><stop
         id="stop81"
         style="stop-color:#b31777;stop-opacity:1"
         offset="0.28999999" /><stop
         id="stop83"
         style="stop-color:#cd0f7e;stop-opacity:1"
         offset="0.83999997" /><stop
         id="stop85"
         style="stop-color:#ed2c89;stop-opacity:1"
         offset="1" /></linearGradient><linearGradient
       x1="0"
       y1="0"
       x2="1"
       y2="0"
       id="_Linear3"
       gradientUnits="userSpaceOnUse"
       gradientTransform="matrix(311.539,398.641,-311.539,398.641,-27.9866,-136.75)"><stop
         id="stop88"
         style="stop-color:#c06fbb;stop-opacity:1"
         offset="0" /><stop
         id="stop90"
         style="stop-color:#6e4d9b;stop-opacity:1"
         offset="1" /></linearGradient><linearGradient
       x1="0"
       y1="0"
       x2="1"
       y2="0"
       id="_Linear4"
       gradientUnits="userSpaceOnUse"
       gradientTransform="matrix(379.008,311.539,-379.008,311.539,-95.31,-49.8356)"><stop
         id="stop93"
         style="stop-color:#c06fbb;stop-opacity:1"
         offset="0" /><stop
         id="stop95"
         style="stop-color:#6e4d9b;stop-opacity:1"
         offset="1" /></linearGradient><linearGradient
       x1="0"
       y1="0"
       x2="1"
       y2="0"
       id="_Linear5"
       gradientUnits="userSpaceOnUse"
       gradientTransform="matrix(353.797,311.539,-353.797,311.539,-38.5899,-49.8356)"><stop
         id="stop98"
         style="stop-color:#c06fbb;stop-opacity:1"
         offset="0" /><stop
         id="stop100"
         style="stop-color:#6e4d9b;stop-opacity:1"
         offset="1" /></linearGradient><linearGradient
       x1="0"
       y1="0"
       x2="1"
       y2="0"
       id="_Linear6"
       gradientUnits="userSpaceOnUse"
       gradientTransform="matrix(-168.959,-249.473,241.466,-174.562,266.435,289.783)"><stop
         id="stop103"
         style="stop-color:#6e4d9b;stop-opacity:1"
         offset="0" /><stop
         id="stop105"
         style="stop-color:#77327a;stop-opacity:1"
         offset="0.14" /><stop
         id="stop107"
         style="stop-color:#b31777;stop-opacity:1"
         offset="0.28999999" /><stop
         id="stop109"
         style="stop-color:#cd0f7e;stop-opacity:1"
         offset="0.83999997" /><stop
         id="stop111"
         style="stop-color:#ed2c89;stop-opacity:1"
         offset="1" /></linearGradient><linearGradient
       x1="0"
       y1="0"
       x2="1"
       y2="0"
       id="_Linear7"
       gradientUnits="userSpaceOnUse"
       gradientTransform="matrix(311.539,375.658,-311.539,375.658,-27.9866,-65.9245)"><stop
         id="stop114"
         style="stop-color:#c06fbb;stop-opacity:1"
         offset="0" /><stop
         id="stop116"
         style="stop-color:#6e4d9b;stop-opacity:1"
         offset="1" /></linearGradient><linearGradient
       x1="0"
       y1="0"
       x2="1"
       y2="0"
       id="_Linear8"
       gradientUnits="userSpaceOnUse"
       gradientTransform="matrix(191.237,-188.333,188.333,191.237,990.204,2756.77)"><stop
         id="stop119"
         style="stop-color:#6e4d9b;stop-opacity:1"
         offset="0" /><stop
         id="stop121"
         style="stop-color:#77327a;stop-opacity:1"
         offset="0.14" /><stop
         id="stop123"
         style="stop-color:#b31777;stop-opacity:1"
         offset="0.52999997" /><stop
         id="stop125"
         style="stop-color:#cd0f7e;stop-opacity:1"
         offset="0.79000002" /><stop
         id="stop127"
         style="stop-color:#ed2c89;stop-opacity:1"
         offset="1" /></linearGradient></defs><rect
     style="opacity:0;fill:none;stroke:#000000;stroke-width:1.7884953px;stroke-linecap:butt;stroke-linejoin:miter;stroke-opacity:1"
     id="rect3102"
     width="298.21152"
     height="298.21152"
     x="0.89424765"
     y="0.89424247"
     inkscape:export-filename="/lab/projects/gooy-wiki/client/src/assets/icons/Icon-512.png"
     inkscape:export-xdpi="153.60001"
     inkscape:export-ydpi="153.60001" /></svg>