<?xml version="1.0" encoding="UTF-8" standalone="no"?>
<svg width="256px" height="249px" viewBox="0 0 256 249" version="1.1" xmlns="http://www.w3.org/2000/svg" xmlns:xlink="http://www.w3.org/1999/xlink" preserveAspectRatio="xMidYMid">
    <defs>
        <linearGradient x1="-388.147851%" y1="-113.677693%" x2="237.683809%" y2="370.654866%" id="linearGradient-1">
            <stop stop-color="#C06FBB" offset="0%"></stop>
            <stop stop-color="#6E4D9B" offset="100%"></stop>
        </linearGradient>
        <linearGradient x1="72.9454854%" y1="79.5146865%" x2="-97.0517904%" y2="-119.502084%" id="linearGradient-2">
            <stop stop-color="#6E4D9B" offset="0%"></stop>
            <stop stop-color="#77327A" offset="14%"></stop>
            <stop stop-color="#B31777" offset="29%"></stop>
            <stop stop-color="#CD0F7E" offset="84%"></stop>
            <stop stop-color="#ED2C89" offset="100%"></stop>
        </linearGradient>
        <linearGradient x1="-232.211989%" y1="-693.599872%" x2="250.775991%" y2="101.70976%" id="linearGradient-3">
            <stop stop-color="#C06FBB" offset="0%"></stop>
            <stop stop-color="#6E4D9B" offset="100%"></stop>
        </linearGradient>
        <linearGradient x1="-821.186214%" y1="-466.930382%" x2="101.985142%" y2="287.264085%" id="linearGradient-4">
            <stop stop-color="#C06FBB" offset="0%"></stop>
            <stop stop-color="#6E4D9B" offset="100%"></stop>
        </linearGradient>
        <linearGradient x1="-140.094614%" y1="-230.925718%" x2="418.49908%" y2="261.976742%" id="linearGradient-5">
            <stop stop-color="#C06FBB" offset="0%"></stop>
            <stop stop-color="#6E4D9B" offset="100%"></stop>
        </linearGradient>
        <linearGradient x1="191.083716%" y1="225.066658%" x2="20.3577022%" y2="24.5947708%" id="linearGradient-6">
            <stop stop-color="#6E4D9B" offset="0%"></stop>
            <stop stop-color="#77327A" offset="14%"></stop>
            <stop stop-color="#B31777" offset="29%"></stop>
            <stop stop-color="#CD0F7E" offset="84%"></stop>
            <stop stop-color="#ED2C89" offset="100%"></stop>
        </linearGradient>
        <linearGradient x1="-388.094004%" y1="-138.727507%" x2="237.674802%" y2="445.404664%" id="linearGradient-7">
            <stop stop-color="#C06FBB" offset="0%"></stop>
            <stop stop-color="#6E4D9B" offset="100%"></stop>
        </linearGradient>
        <linearGradient x1="11.503492%" y1="89.6525993%" x2="89.8192643%" y2="11.5773982%" id="linearGradient-8">
            <stop stop-color="#6E4D9B" offset="0%"></stop>
            <stop stop-color="#77327A" offset="14%"></stop>
            <stop stop-color="#B31777" offset="53%"></stop>
            <stop stop-color="#CD0F7E" offset="79%"></stop>
            <stop stop-color="#ED2C89" offset="100%"></stop>
        </linearGradient>
    </defs>
	<g>
		<path d="M167.876207,46.3687469 L144.195715,62.173447 L119.80056,25.6145151 L143.481051,9.80981504 L167.876207,46.3687469 L167.876207,46.3687469 L167.876207,46.3687469 Z" fill="url(#linearGradient-1)"></path>
		<path d="M187.128711,156.199437 L227.589323,216.829994 L179.391024,248.994707 L138.930412,188.363184 L131.871655,177.787122 L180.07092,145.622408 L187.128711,156.199437 L187.128711,156.199437 L187.128711,156.199437 Z" fill="url(#linearGradient-2)"></path>
		<path d="M126.421861,196.710267 L135.330053,210.059034 L98.6436403,234.541108 L82.6766922,210.615313 L90.6915535,205.266921 L119.36407,186.133238 L126.421861,196.710267 L126.421861,196.710267 L126.421861,196.710267 Z" fill="url(#linearGradient-3)"></path>
		<path d="M207.172143,127.536576 L217.46234,120.670006 L233.428323,144.595801 L209.744934,160.400501 L200.836742,147.051735 L214.229934,138.113604 L207.172143,127.536576 L207.172143,127.536576 L207.172143,127.536576 L207.172143,127.536576 Z M200.836742,147.051735 L193.778952,136.474706 L207.172143,127.536576 L214.229934,138.113604 L200.836742,147.051735 L200.836742,147.051735 L200.836742,147.051735 L200.836742,147.051735 Z" fill="url(#linearGradient-4)"></path>
		<path d="M41.1093181,130.966968 L33.0954225,136.315359 L8.69833531,99.7564274 L45.3847478,75.2743531 L62.4855008,100.900856 L33.8139497,120.034538 L62.4855008,100.900856 L69.781835,111.834251 L41.1093181,130.966968 L41.1093181,130.966968 L41.1093181,130.966968 Z" fill="url(#linearGradient-5)"></path>
		<path d="M130.488688,71.3224496 L82.2894234,103.487163 L74.994055,92.5537678 L34.9120223,32.4910791 L83.1112871,0.3263657 L123.19332,60.3890547 L130.488688,71.3224496 Z" fill="url(#linearGradient-6)"></path>
		<path d="M157.589904,53.2375841 L144.196713,62.1747484 L136.900379,51.2423191 L119.799626,25.6158165 L143.483014,9.81111647 L167.880102,46.3700483 L157.589904,53.2375841 L157.589904,53.2375841 L157.589904,53.2375841 Z" fill="url(#linearGradient-7)"></path>
		<path d="M97.7503053,215.84395 L90.6915487,205.266921 L119.364066,186.133238 L126.421857,196.710267 L97.7503053,215.84395 L97.7503053,215.84395 L97.7503053,215.84395 Z" fill="#714896"></path>
		<path d="M200.836744,147.051736 L193.778953,136.474708 L207.172145,127.536577 L214.229936,138.113606 L200.836744,147.051736 L200.836744,147.051736 L200.836744,147.051736 Z" fill="#6F4795"></path>
		<path d="M41.1093172,130.966965 L33.8139488,120.034536 L62.4854999,100.900853 L69.7818341,111.834248 L41.1093172,130.966965 L41.1093172,130.966965 L41.1093172,130.966965 Z" fill="#88519F"></path>
		<path d="M144.196718,62.1747499 L136.900384,51.2423206 L150.294542,42.3041905 L157.58991,53.2375855 L144.196718,62.1747499 L144.196718,62.1747499 L144.196718,62.1747499 Z" fill="#85509E"></path>
		<path d="M187.128711,156.199434 L138.930412,188.363182 L131.871655,177.787119 L180.07092,145.622405 L187.128711,156.199434 L187.128711,156.199434 L187.128711,156.199434 Z" fill="#8D166A"></path>
		<path d="M123.19332,60.3890532 L130.488688,71.3224482 L82.2894233,103.487162 L74.9940548,92.5537666 L123.19332,60.3890532 L123.19332,60.3890532 L123.19332,60.3890532 Z" fill="#A70D6F"></path>
		<path d="M27.4386316,51.6530056 L36.5361217,65.2857977 L22.9033297,74.3832878 L13.8058395,60.7504958 L27.4386316,51.6530056 L27.4386316,51.6530056 Z" fill="#9E61AD"></path>
		<path d="M76.5679915,215.084186 L85.6654817,228.716978 L72.0326896,237.814468 L62.9351995,224.181676 L76.5679915,215.084186 L76.5679915,215.084186 Z" fill="#8053A3"></path>
		<path d="M40.7042434,228.813811 L0.791684264,168.517994 L214.08857,25.8555586 L255.941111,85.1892808 L40.7042434,228.813811 L40.7042434,228.813811 L40.7042434,228.813811 L40.7042434,228.813811 Z" fill="url(#linearGradient-8)"></path>
	</g>
</svg>
