<?xml version="1.0" encoding="UTF-8"?>
<svg width="168px" height="52px" viewBox="0 0 168 52" version="1.1" xmlns="http://www.w3.org/2000/svg" xmlns:xlink="http://www.w3.org/1999/xlink">
    <!-- Generator: Sketch 55.1 (78136) - https://sketchapp.com -->
    <title>JA_Logo_WEB@3x</title>
    <desc>Created with Sketch.</desc>
    <g id="-" stroke="none" stroke-width="1" fill="none" fill-rule="evenodd">
        <g id="JA_Logo_WEB">
            <g>
                <path d="M159.645434,49.9445783 L160.036754,49.9445783 C160.449681,49.9445783 160.708961,49.7961446 160.708961,49.5677108 C160.708961,49.3113253 160.434076,49.2014458 160.025951,49.2014458 C159.837493,49.2014458 159.710254,49.2091566 159.645434,49.2216867 L159.645434,49.9445783 Z M159.260116,49.0414458 C159.453375,49.0163855 159.736662,49 159.997142,49 C160.407668,49 160.678951,49.0501205 160.865009,49.1619277 C161.007852,49.2486747 161.09788,49.3855422 161.09788,49.5407229 C161.09788,49.8 160.847003,49.9744578 160.534907,50.0438554 L160.534907,50.053494 C160.762977,50.106506 160.899819,50.2481928 160.974242,50.4554217 C161.072672,50.7310843 161.141093,50.9228916 161.202312,51 L160.800189,51 C160.754575,50.9412048 160.684953,50.773494 160.60813,50.5257831 C160.520503,50.253012 160.354852,50.146988 160.006745,50.1383133 L159.645434,50.1383133 L159.645434,51 L159.260116,51 L159.260116,49.0414458 Z M158.551903,50 C158.551903,49.0486486 159.303755,48.2735135 160.232265,48.2735135 C161.157622,48.2735135 161.908422,49.0486486 161.908422,50 C161.908422,50.9545946 161.157622,51.7254054 160.232265,51.7254054 C159.303755,51.7254054 158.551903,50.9545946 158.551903,50 M158.289017,50 C158.289017,48.8962162 159.159693,48 160.232265,48 C161.302734,48 162.17341,48.8962162 162.17341,50 C162.17341,51.1027027 161.302734,52 160.232265,52 C159.159693,52 158.289017,51.1027027 158.289017,50 Z M86.4277457,35.9939928 C86.4277457,36.4236166 86.4019972,36.8885381 86.3457321,37.3897659 C86.2923279,37.8899851 86.2255726,38.3841533 86.1445126,38.8692449 L83.9539866,52 L79.7779684,52 L81.8454741,39.4279576 C81.8979246,39.026572 81.945607,38.6413225 81.9875674,38.2691835 C82.0285742,37.8990617 82.0495544,37.5551609 82.0495544,37.2394984 C82.0495544,35.8084276 81.7853943,34.7565553 81.2580278,34.0848899 C80.7316149,33.4132246 79.8456773,33.0753749 78.6021222,33.0753749 C77.3061166,33.0753749 76.1817673,33.6068578 75.2357499,34.6647812 C74.2897326,35.7237131 73.6288555,37.3242129 73.2493042,39.4703148 L71.1817985,52 L67.0057803,52 L70.7755451,29.4719811 L74.9515633,29.4719811 L74.6263698,31.4032711 C75.2223989,30.7447163 75.9462166,30.1799526 76.797823,29.7089801 C77.6484757,29.236999 78.6831822,29 79.8990815,29 C82.0085476,29 83.6240249,29.5879593 84.7445595,30.7598439 C85.8679551,31.932737 86.4277457,33.6774533 86.4277457,35.9939928 Z M103.651949,35.0953854 C102.821206,34.4530377 101.896859,33.9114892 100.874032,33.4776575 C99.8512047,33.0428375 98.7318476,32.8264157 97.5159605,32.8264157 C96.6033139,32.8264157 95.8837271,33.0082495 95.3591504,33.3719172 C94.8355486,33.736573 94.5586345,34.2425453 94.530358,34.8868695 C94.5020816,35.1942081 94.530358,35.4748647 94.6132373,35.7278508 C94.6961165,35.9788605 94.8765007,36.2318467 95.1524398,36.4838446 C95.4293539,36.7368308 95.8359497,37.0184756 96.3761273,37.324826 C96.9143548,37.6331529 97.6397918,37.9978087 98.5514634,38.4187935 C99.4904363,38.8684369 100.335804,39.308198 101.080742,39.743018 C101.827631,40.1778379 102.448737,40.6670104 102.946988,41.2144883 C103.443288,41.7619661 103.803081,42.3707141 104.025393,43.0436968 C104.245754,43.7166796 104.314983,44.5141789 104.232103,45.4401478 C104.149224,46.6754318 103.851834,47.7101057 103.339933,48.5520753 C102.829007,49.3920684 102.194249,50.0660394 101.433711,50.5710235 C100.672197,51.0750193 99.8307287,51.4396752 98.9044314,51.6630145 C97.9781341,51.8893186 97.0596372,52 96.1479656,52 C94.2407683,52 92.5471068,51.6778379 91.0679563,51.0325256 C89.5897808,50.3872132 88.3670684,49.6183724 87.3988439,48.7200739 L89.6785103,45.5251353 C90.5911569,46.3097877 91.6013085,46.9471943 92.7050649,47.4383432 C93.8107713,47.9285039 95.0822362,48.172596 96.5214097,48.172596 C97.5715383,48.172596 98.4130063,47.9571625 99.0497138,47.5213543 C99.6864213,47.0885108 100.016963,46.462963 100.044265,45.6506402 C100.072541,45.3413251 100.037439,45.0497981 99.9399342,44.7681533 C99.8443794,44.4874968 99.6571698,44.2147461 99.3812307,43.9479247 C99.1043166,43.6820916 98.7240472,43.4152703 98.2413975,43.1484489 C97.7567978,42.883604 97.1288657,42.5812065 96.3537011,42.2452092 C95.2772462,41.7678955 94.3441235,41.3063934 93.5562833,40.8577382 C92.7694181,40.4080949 92.1190599,39.9110166 91.6081338,39.3635387 C91.0952577,38.8180373 90.7364393,38.2073129 90.5297288,37.5353184 C90.3230182,36.8633239 90.260615,36.0638481 90.3434943,35.1388674 C90.4263735,34.1012288 90.6740362,33.1979892 91.0903824,32.4261837 C91.5038035,31.6553665 92.0439811,31.01796 92.7050649,30.5139641 C93.3690738,30.0079918 94.1432633,29.6295007 95.0276334,29.378491 C95.9120036,29.1255049 96.8656023,29 97.8894046,29 C99.6864213,29 101.238701,29.2727507 102.554043,29.8192404 C103.86646,30.36573 104.963391,30.9764544 105.849711,31.6484489 L103.651949,35.0953854 Z M124.412488,52 L120.540691,52 L119.509762,40.3080987 C119.454534,39.6944979 119.41287,38.9676322 119.386709,38.1294713 C119.358611,37.2903255 119.345046,36.6343735 119.345046,36.1596454 C119.261719,36.3832207 119.159983,36.6698303 119.035961,37.0194744 C118.912908,37.3681336 118.781136,37.7394458 118.644518,38.1294713 C118.505963,38.5204817 118.356749,38.9045978 118.191064,39.2818194 C118.026348,39.6590411 117.888762,40.0008058 117.779274,40.3080987 L112.630443,52 L108.757677,52 L106.820809,30 L111.104397,30 L111.763261,41.3136948 C111.79136,41.9292653 111.819458,42.6413574 111.847557,43.4509558 C111.874687,44.263509 111.888251,44.9037024 111.888251,45.3794153 C112.052968,44.9037024 112.285508,44.2684335 112.58781,43.4726239 C112.890113,42.6758293 113.165286,41.9578278 113.41236,41.3136948 L118.56216,30 L122.187852,30 L123.259475,41.3136948 C123.312766,41.9578278 123.354429,42.6758293 123.382528,43.4726239 C123.409658,44.2684335 123.424192,44.9037024 123.424192,45.3794153 C123.587939,44.9037024 123.822417,44.263509 124.12375,43.4509558 C124.426053,42.6413574 124.686692,41.9292653 124.906636,41.3136948 L129.644646,30 L134.011561,30 L124.412488,52 Z M150.520231,37.9128212 C150.520231,38.6441093 150.472601,39.35168 150.377342,40.0375097 C150.280138,40.7233393 150.147941,41.3765575 149.982694,41.9922231 L136.220579,41.9922231 C136.055333,43.927172 136.447064,45.4273009 137.398689,46.4906333 C138.350315,47.5559423 139.622712,48.0895849 141.222687,48.0895849 C142.103354,48.0895849 142.93639,47.9285039 143.722769,47.6073301 C144.507204,47.285168 145.298443,46.8701126 146.097458,46.3651285 L147.958911,49.3930566 C146.830375,50.2607201 145.67851,50.9149265 144.507204,51.34777 C143.335898,51.78259 142.047947,52 140.643352,52 C139.237785,52 137.977052,51.7470138 136.86018,51.243018 C135.745253,50.7390221 134.815984,50.0156398 134.070431,49.0788004 C133.327794,48.1380081 132.782481,47.002535 132.437407,45.671393 C132.09525,44.3422274 131.99027,42.8608748 132.128299,41.2362293 C132.265356,39.3566211 132.630843,37.6618115 133.223786,36.1478474 C133.817701,34.6338833 134.587555,33.345235 135.539181,32.2789379 C136.488862,31.2136289 137.57074,30.4013062 138.783844,29.8409814 C139.995003,29.2796683 141.29073,29 142.66908,29 C143.962862,29 145.100147,29.2253158 146.078017,29.6710063 C147.055888,30.1216379 147.876288,30.744221 148.538246,31.5436968 C149.200204,32.3421844 149.694971,33.2829767 150.024492,34.3611326 C150.354985,35.4402767 150.520231,36.6261494 150.520231,37.9128212 Z M146.471693,38.5027928 C146.60875,36.9058177 146.339495,35.5746756 145.665873,34.5083784 C144.989335,33.4430695 143.839414,32.9094268 142.214166,32.9094268 C140.753193,32.9094268 139.574111,33.4351637 138.678863,34.4866374 C137.783616,35.5381112 137.142071,36.8761708 136.758116,38.5027928 L146.471693,38.5027928 Z M166.221275,34.5359351 C165.891413,34.2495067 165.470085,33.9993861 164.959236,33.7845648 C164.449361,33.5697435 163.848993,33.4638456 163.160077,33.4638456 C162.498407,33.4638456 161.884416,33.5636922 161.319077,33.7643938 C160.752766,33.9630783 160.243863,34.3059855 159.787506,34.7931155 C159.333094,35.2802456 158.939011,35.9156325 158.609149,36.7023021 C158.277341,37.4899803 158.014619,38.4834028 157.821956,39.6845867 L155.753264,52 L151.491329,52 L155.338747,29.4720018 L159.600681,29.4720018 L159.228978,31.5324709 C159.863403,30.7881605 160.607782,30.1810129 161.463088,29.7080026 C162.318394,29.2360009 163.269058,29 164.318973,29 C165.200551,29 165.938119,29.1220346 166.530703,29.3650954 C167.123287,29.6081561 167.613701,29.9016444 168,30.2455602 L166.221275,34.5359351 Z M63.9175035,30.4497293 C65.3292848,31.4172037 66.0346821,32.9519206 66.0346821,35.0548681 C66.0346821,35.363195 66.0198835,35.6646043 65.9942327,35.9581078 C65.9656222,36.2516112 65.9241863,36.5540088 65.8679518,36.8623357 L63.3087901,51.5365214 L59.0724598,51.5365214 L59.4078935,49.5610553 C58.7084156,50.2350262 57.8767374,50.8091862 56.9118722,51.2855117 C55.9470071,51.7628255 54.8351431,52 53.5772667,52 C52.5699791,52 51.6258319,51.8517659 50.7448252,51.5582624 C49.864805,51.264759 49.1031732,50.8161038 48.4599298,50.2132852 C47.8147132,49.6104666 47.3263612,48.8604022 46.9899409,47.9630919 C46.6545073,47.0667698 46.5430249,46.0301194 46.6545073,44.8521526 C46.7393522,43.5625161 47.054068,42.4408782 47.5986544,41.4882272 C48.1442275,40.534588 48.8437054,39.7499356 49.6970881,39.1332818 C50.5494844,38.516628 51.5064569,38.0610553 52.5699791,37.7645871 C53.6325146,37.4730601 54.7364861,37.324826 55.8838666,37.324826 C56.9464022,37.324826 57.9813138,37.4305663 58.9886014,37.6400705 C59.9949025,37.8505629 60.7772522,38.1104666 61.3376238,38.4187935 L61.630635,36.8208301 C61.6868695,36.5965025 61.7213994,36.3711867 61.736198,36.1488356 C61.75001,35.9235198 61.7579025,35.7278508 61.7579025,35.5598522 C61.7579025,34.6062129 61.4352942,33.9184068 60.7930374,33.4984102 C60.1478208,33.0774255 59.1277077,32.8679213 57.7297385,32.8679213 C56.6948269,32.8679213 55.7092438,32.9944144 54.7729892,33.2464123 C54.3714553,33.3541291 53.9857066,33.4845751 53.6039041,33.6239151 C53.9837334,32.6712641 54.1603294,31.6395549 54.0616724,30.6157515 L53.9669617,29.6383948 C54.0685784,29.6077597 54.1642757,29.5761365 54.2688521,29.5474779 C55.5691509,29.1818338 56.8911543,29 58.232889,29 C60.6095354,29 62.5057223,29.4832431 63.9175035,30.4497293 Z M60.1211834,45.5666409 L60.7506149,41.9922231 C60.1626193,41.6838962 59.4493295,41.4259689 58.6107452,41.2144883 C57.772161,41.0039959 56.7924973,40.8992438 55.6747139,40.8992438 C54.2747715,40.8992438 53.1362701,41.2362293 52.2552633,41.9082238 C51.3752432,42.5812065 50.905636,43.5476927 50.8503881,44.8086706 C50.7941536,45.7909685 51.0733529,46.611197 51.6899589,47.2703446 C52.3036052,47.9285039 53.2970809,48.2585718 54.6674262,48.2585718 C55.7861962,48.2585718 56.8211078,47.9848329 57.772161,47.4383432 C58.7222276,46.8908653 59.5055639,46.267294 60.1211834,45.5666409 Z" id="Combined-Shape" fill="#333333"></path>
                <path d="M51.440913,30.0934016 L48.9999509,4.33919107 C48.7043997,1.22540179 46.1151775,-0.628988634 43.2158688,0.196066358 L4.7418878,11.153828 C1.84354815,11.978883 -0.26794703,15.1729961 0.0276041544,18.2867854 L2.46856623,44.0449626 C2.76411741,47.1577602 5.35333959,49.011159 8.25167924,48.1870956 L17.7761795,45.4729424 C19.4990976,45.3023781 22.2956901,45.9886017 23.2104452,51.8562104 C23.2191664,51.9067847 23.2278876,51.9504174 23.2366088,52 L25.6640046,47.9699237 L25.6640046,47.9619905 C26.7948512,46.4368287 27.8103845,43.0513266 33.9103671,40.8796074 L46.7266293,37.229334 C49.625938,36.4032874 51.7345261,33.2091742 51.440913,30.0934016 L51.440913,30.0934016 Z M44.4038877,26.817973 C44.1141506,27.0946441 43.7924359,27.314791 43.4406816,27.4853552 C43.0889272,27.6549278 42.7536462,27.779876 42.4348385,27.8592083 C41.4764775,28.0991882 40.6973851,28.0436556 40.0965926,27.6926106 C39.496769,27.3425572 39.0936566,26.7366575 38.8882243,25.8768946 C38.8533396,25.7370716 38.828145,25.5893154 38.8077956,25.4286677 C38.7884152,25.2700032 38.7738799,25.1014223 38.7661277,24.9209415 L38.2467329,16.8121979 L36.3552053,17.2862079 L36.2040381,14.7525354 L38.0955657,14.2785254 L37.8387753,10.2920818 L40.2913657,8.14416223 L40.642151,13.6418844 L43.7691794,12.8564955 L43.9193776,15.393143 L40.7933182,16.1745653 L41.2904256,23.7408749 C41.3020538,24.011596 41.3350005,24.2605008 41.3873276,24.4816394 C41.5443089,25.1381134 42.0171908,25.3642102 42.8069423,25.167863 C43.2110237,25.0657228 43.5424287,24.9278831 43.8040642,24.7523606 C44.0647306,24.579813 44.3157069,24.3606578 44.5560239,24.0998531 L44.4038877,26.817973 Z M36.7205259,27.0460531 C36.532536,27.6410447 36.244737,28.1517458 35.8571289,28.5771648 C35.4685517,29.0035754 35.0092361,29.3556121 34.479182,29.6342665 C33.9491279,29.9129209 33.4055076,30.1231512 32.851228,30.2609909 C31.6913107,30.5505535 30.6137602,30.6110443 29.6205144,30.4404801 C28.6262996,30.2689242 27.7696856,29.9833282 27.0497036,29.5787339 L27.9673658,27.2681833 C28.6379278,27.6122868 29.3443436,27.851275 30.0895202,27.9851481 C30.8337278,28.1160463 31.6428597,28.0714219 32.515947,27.8522667 C33.1555003,27.6936023 33.6371034,27.4327976 33.9588181,27.0678695 C34.2834399,26.7059162 34.3929392,26.2705807 34.2911921,25.7678129 C34.2621215,25.5744406 34.1971971,25.4009014 34.097388,25.242237 C33.997579,25.0835725 33.8444738,24.9447412 33.6371034,24.8227679 C33.4307021,24.7027779 33.1603454,24.5956794 32.8270025,24.505439 C32.4936595,24.417182 32.0663215,24.3259499 31.5469267,24.2386845 C30.8211305,24.1097696 30.1854532,23.9679633 29.6408638,23.8122739 C29.0962744,23.6565844 28.6272686,23.4503206 28.2367534,23.192491 C27.8462382,22.9346613 27.5371208,22.6153491 27.3132771,22.2335629 C27.0884644,21.8517766 26.9334211,21.3698334 26.8481474,20.7897166 C26.7454312,20.1401841 26.7648116,19.5481675 26.9033815,19.0106918 C27.0429204,18.4742077 27.2774233,17.9992061 27.6068902,17.5896536 C27.9353881,17.1781177 28.3520668,16.829056 28.8530503,16.5385018 C29.3530648,16.2479476 29.9141275,16.026809 30.5362385,15.8701279 C31.6292934,15.5974234 32.614787,15.5280077 33.4927194,15.6628725 C34.3725898,15.7997206 35.1303637,16.006976 35.76701,16.2836471 L34.9355906,18.7369957 C34.3377051,18.4682578 33.6942756,18.2758772 33.0091783,18.1658038 C32.3231119,18.0547387 31.610882,18.0914298 30.8705505,18.2778605 C30.3162709,18.4157002 29.9063754,18.6368388 29.6398948,18.9402845 C29.3743832,19.2457135 29.2803883,19.5977502 29.3579099,19.9963945 C29.3860115,20.1907584 29.4441527,20.3593394 29.5313645,20.5011457 C29.6195454,20.6419604 29.7648984,20.7708752 29.9703307,20.8839236 C30.175763,20.9959804 30.464531,21.1080371 30.8366348,21.214144 C31.2106766,21.3202508 31.704877,21.4342908 32.3221429,21.5532892 C32.9587892,21.6861706 33.5372943,21.8289686 34.0537821,21.9826747 C34.572208,22.1363809 35.0218334,22.3406613 35.4045964,22.601466 C35.7873594,22.8622706 36.0955079,23.1805911 36.3290417,23.5594024 C36.5625756,23.9392054 36.721495,24.4201569 36.8067687,25.0002737 C36.9375865,25.7717795 36.9085159,26.4520532 36.7205259,27.0460531 L36.7205259,27.0460531 Z M23.2259496,32.3712277 L23.149397,31.1584366 C22.8751642,31.648313 22.5069365,32.0995149 22.0447139,32.516009 C21.5824912,32.9325031 20.9739464,33.2359488 20.2171416,33.4243628 C18.9060572,33.7535915 17.8168784,33.6514513 16.9505743,33.1209171 C16.0842701,32.5893913 15.4854156,31.6284799 15.1520726,30.232233 C15.0900553,29.9744033 15.0406353,29.689799 15.0028435,29.3804034 C14.9640827,29.0719994 14.9350121,28.7645871 14.9156317,28.4581664 L14.3894537,20.2165414 L16.987397,19.5650256 L17.5077609,27.4526307 C17.5319864,27.7035188 17.55815,27.9415154 17.5862516,28.1735621 C17.6143531,28.4026339 17.6511759,28.6128643 17.6967199,28.8022699 C17.9031212,29.6630244 18.2180528,30.255041 18.6415146,30.5763365 C19.0659455,30.8996152 19.6657691,30.9640727 20.4390473,30.7697087 C21.2452721,30.5674116 21.8712592,30.0745602 22.3160395,29.2861964 C22.7608198,28.5008075 22.9371815,27.4337893 22.8480317,26.0891083 L22.3325129,18.2253029 L24.9294872,17.5757704 L25.8229239,31.7187203 L23.2259496,32.3712277 Z M13.2266293,36.7225995 C13.1413556,37.4088231 12.9456135,38.0246394 12.638434,38.5670734 C12.3302856,39.1095074 11.8903504,39.5914506 11.3157214,40.0198445 C10.7410923,40.4462552 9.99688476,40.8389496 9.08406766,41.1959445 L7.95515903,39.042075 C8.51428373,38.7733372 8.97941347,38.5194741 9.34957921,38.2824691 C9.72071398,38.0434808 10.008513,37.774743 10.2129763,37.4772472 C10.4184086,37.180743 10.5569785,36.826723 10.627717,36.4141955 C10.6994245,36.004643 10.7158978,35.4949335 10.676168,34.8840755 L9.79920462,21.3658668 L12.396179,20.714351 L13.2731423,34.3426332 C13.3274074,35.2420621 13.3119031,36.0353842 13.2266293,36.7225995 L13.2266293,36.7225995 Z M9.37380472,16.5047856 C9.62090489,16.0872998 9.97169023,15.8215369 10.4251917,15.7084885 C10.8631889,15.5974234 11.2808366,15.6708057 11.680073,15.9266521 C12.0802784,16.1834901 12.3380377,16.5513933 12.4523821,17.0333364 C12.5638195,17.4984215 12.4988951,17.939707 12.2605161,18.3542178 C12.0211681,18.7707119 11.68298,19.0315165 11.2459519,19.1415899 C10.7914814,19.2566217 10.3612364,19.1862143 9.95230982,18.9323512 C9.54532131,18.6784882 9.28562387,18.3195099 9.17418654,17.8544248 C9.05984215,17.3734733 9.12573553,16.9222713 9.37380472,16.5047856 L9.37380472,16.5047856 Z" id="Fill-11" fill="#52BAD5"></path>
            </g>
        </g>
    </g>
</svg>