<svg xmlns="http://www.w3.org/2000/svg" shape-rendering="geometricPrecision" text-rendering="geometricPrecision" image-rendering="optimizeQuality" fill-rule="evenodd" clip-rule="evenodd" viewBox="0 0 512 512.346"><path fill="#003DFF" fill-rule="nonzero" d="M256.001 0C116.099 0 2.048 112.803.027 252.232c-2.053 141.606 112.839 258.945 254.458 259.764 43.739.253 85.859-10.44 123.269-30.768 3.647-1.981 4.211-6.996 1.107-9.748l-23.955-21.236c-4.868-4.315-11.798-5.535-17.785-2.988-26.111 11.112-54.486 16.785-83.723 16.427-114.436-1.4-206.894-96.614-205.069-211.043C50.13 139.658 142.597 48.301 256.001 48.301l207.698.004v369.163l-117.84-104.702c-3.813-3.389-9.659-2.726-12.732 1.344-18.916 25.043-49.724 40.624-83.95 38.259-47.474-3.279-85.939-41.497-89.501-88.948-4.249-56.604 40.605-104.024 96.325-104.024 50.393 0 91.891 38.787 96.225 88.073.385 4.384 2.367 8.474 5.66 11.395l30.687 27.205c3.484 3.086 9.01 1.195 9.866-3.378 2.214-11.831 2.989-24.164 2.121-36.81-4.943-72.076-63.322-130.06-135.43-134.504-82.671-5.095-151.783 59.571-153.98 140.642-2.142 79 62.589 147.108 141.596 148.852 32.987.728 63.558-9.645 88.269-27.612l153.97 136.492c6.602 5.85 17.015 1.164 17.015-7.656V9.717c0-5.366-4.348-9.715-9.714-9.715L256.001 0z"/></svg>