<?xml version="1.0" encoding="utf-8"?><!-- Uploaded to: SVG Repo, www.svgrepo.com, Generator: SVG Repo Mixer Tools -->
<svg fill="#000000" width="800px" height="800px" viewBox="0 0 32 32" xmlns="http://www.w3.org/2000/svg">
  <path d="M0 0h32v32h-32zM2.803 28h12v-2h-12zM4.401 9.197h0.401c0.932-0.129 1.599-0.932 1.599-2v-3.197h-1.469v3.333c0 0.531-0.129 0.667-0.531 0.667s-0.667-0.136-0.803-0.401l-0.932 0.803c0.401 0.667 1.068 0.932 1.735 0.796zM11.068 9.197v-1.197h-2.803v-0.803h2.401v-1.197h-2.401v-0.803h2.803v-1.197h-4.265v5.333h4.265zM12.803 9.197h1.463v-4h1.599v-1.197h-4.531v1.197h1.599v4zM7.469 14.265c0-0.667-0.401-1.197-1.068-1.197 0.531-0.136 0.796-0.667 0.796-1.204 0-0.265-0.129-0.667-0.265-0.932-0.401-0.401-0.932-0.531-1.463-0.531h-2.667v5.197h2.667c1.197 0 2-0.531 2-1.333zM4.136 11.599h0.932c0.401 0 0.667 0.136 0.667 0.401 0 0.401-0.265 0.531-0.667 0.531h-0.932zM4.136 14.401v-0.932h1.061c0.537 0 0.803 0.129 0.667 0.395 0 0.272-0.265 0.537-0.667 0.537zM14 10.401l-2 4.667-0.803-1.204c0.667-0.265 1.068-0.932 1.068-1.599 0-0.401-0.129-0.932-0.401-1.197-0.531-0.537-1.197-0.667-1.728-0.667h-2.537v5.197h1.469v-1.599h0.667l1.068 1.599h2.395l0.401-0.932h2l0.401 0.932h1.599l-2.129-5.333h-1.469zM10 12.932h-0.932v-1.197h0.932c0.401 0 0.803 0.129 0.803 0.667 0 0.265-0.272 0.531-0.803 0.531zM15.197 13.599h-1.061l0.531-1.463zM17.735 15.599h1.463v-5.197h-1.463zM23.068 13.197l-2.136-2.796h-1.333v5.197h1.469v-2.796l2.265 2.932h1.197v-5.333h-1.463zM27.197 12.401c-0.667-0.136-0.932-0.265-0.932-0.537 0-0.129 0.136-0.265 0.537-0.265 0.531 0 1.061 0.265 1.463 0.537l0.803-1.068c-0.667-0.537-1.333-0.667-2.136-0.667-1.197 0-2 0.796-2 1.735 0 1.061 0.803 1.333 2 1.599 0.667 0.129 0.932 0.265 0.932 0.531s-0.265 0.401-0.667 0.401c-0.667 0-1.197-0.265-1.728-0.667l-0.803 0.932c0.667 0.537 1.599 0.803 2.401 0.803 1.333 0 2.129-0.667 2.129-1.735 0-0.932-0.796-1.333-2-1.599z"/>
</svg>