<svg version="1.1" id="Layer_1" xmlns="http://www.w3.org/2000/svg" xmlns:xlink="http://www.w3.org/1999/xlink" x="0px" y="0px"
	 viewBox="0 0 256 256" enable-background="new 0 0 256 256" xml:space="preserve">
<polygon fill="#CC0000" points="23,65.6 130,3.3 237,65.6 237,190.1 130,252.4 23,190.1 "/>
<polygon fill="#FFFFFF" points="133,127.8 232.5,70.5 236.5,186 133,248.5 "/>
<g>
	<path fill="#CC0000" d="M234,67l-0.3,122.4l-103.8,60.2l-0.5-120.3L234,67z M146.7,139.3l0.3,80.4l34.5-20.1l-0.1-60.6l17.4-10.3
		l0,60.8l17.4-10.2l0.1-81.4L146.7,139.3z"/>
</g>
<path fill="#910505" d="M136.8,4.2c-4.8-2.7-12.5-2.7-17.3,0L24.7,58.7c-4.8,2.7-8.6,9.5-8.6,14.9v109c0,5.5,3.9,12.2,8.6,14.9
	l94.8,54.5c4.8,2.7,12.5,2.7,17.3,0l94.8-54.5c4.8-2.7,8.6-9.5,8.6-14.9v-109c0-5.5-3.9-12.2-8.6-14.9L136.8,4.2z M220.9,61.2
	c4.8,2.7,4.8,7.2,0,9.9l-83,47.7c-4.8,2.7-12.5,2.7-17.3,0L36.4,70.4c-4.8-2.7-4.8-7.2,0-9.9l83-47.7c4.8-2.7,12.5-2.7,17.3,0
	L220.9,61.2z M23.5,81.5c0-5.5,3.9-7.7,8.6-5l84.9,48.8c4.8,2.7,8.6,9.5,8.6,14.9V237c0,5.5-3.9,7.7-8.6,5l-84.9-48.8
	c-4.8-2.7-8.6-9.5-8.6-14.9V81.5z M141.8,240.5c-4.8,2.7-8.6,0.5-8.6-5v-95.3c0-5.5,3.9-12.2,8.6-14.9L224.2,78
	c4.8-2.7,8.6-0.5,8.6,5v95.3c0,5.5-3.9,12.2-8.6,14.9L141.8,240.5z"/>
</svg>
