<svg width="36" height="36" viewBox="0 0 36 36" fill="none" xmlns="http://www.w3.org/2000/svg">
<path d="M0 0H36V36H0V0Z" fill="#FFD102"/>
<path d="M9.41113 21.7109H12.2588C12.2119 22.5898 11.9717 23.3662 11.5381 24.04C11.1104 24.708 10.5156 25.2324 9.75391 25.6133C8.99219 25.9883 8.08691 26.1758 7.03809 26.1758C6.2002 26.1758 5.4502 26.0322 4.78809 25.7451C4.12598 25.458 3.56348 25.0479 3.10059 24.5146C2.64355 23.9756 2.29199 23.3281 2.0459 22.5723C1.80566 21.8105 1.68555 20.9521 1.68555 19.9971V19.2148C1.68555 18.2598 1.81152 17.4014 2.06348 16.6396C2.31543 15.8779 2.67578 15.2275 3.14453 14.6885C3.61328 14.1494 4.17578 13.7363 4.83203 13.4492C5.48828 13.1621 6.2207 13.0186 7.0293 13.0186C8.11914 13.0186 9.03906 13.2148 9.78906 13.6074C10.5391 14 11.1191 14.5391 11.5293 15.2246C11.9453 15.9102 12.1943 16.6924 12.2764 17.5713H9.41992C9.39648 17.0732 9.30273 16.6543 9.13867 16.3145C8.97461 15.9688 8.72266 15.708 8.38281 15.5322C8.04297 15.3564 7.5918 15.2686 7.0293 15.2686C6.61914 15.2686 6.25879 15.3447 5.94824 15.4971C5.64355 15.6494 5.38867 15.8867 5.18359 16.209C4.98438 16.5312 4.83496 16.9414 4.73535 17.4395C4.63574 17.9316 4.58594 18.5176 4.58594 19.1973V19.9971C4.58594 20.6709 4.62988 21.2539 4.71777 21.7461C4.80566 22.2383 4.94629 22.6455 5.13965 22.9678C5.33887 23.29 5.59375 23.5303 5.9043 23.6885C6.21484 23.8467 6.59277 23.9258 7.03809 23.9258C7.54785 23.9258 7.97266 23.8467 8.3125 23.6885C8.65234 23.5244 8.91309 23.2783 9.09473 22.9502C9.27637 22.6221 9.38184 22.209 9.41113 21.7109ZM18.9912 22.0273V13.2031H21.8389V22.0273C21.8389 22.8828 21.6455 23.6211 21.2588 24.2422C20.8779 24.8574 20.3594 25.335 19.7031 25.6748C19.0527 26.0088 18.3174 26.1758 17.4971 26.1758C16.6533 26.1758 15.9033 26.0352 15.2471 25.7539C14.5908 25.4668 14.0752 25.0303 13.7002 24.4443C13.3311 23.8525 13.1465 23.0996 13.1465 22.1855H16.0117C16.0117 22.6367 16.0674 22.9941 16.1787 23.2578C16.2959 23.5156 16.4658 23.6973 16.6885 23.8027C16.9111 23.9082 17.1807 23.9609 17.4971 23.9609C17.8018 23.9609 18.0654 23.8877 18.2881 23.7412C18.5107 23.5889 18.6836 23.3691 18.8066 23.082C18.9297 22.7891 18.9912 22.4375 18.9912 22.0273ZM30.5752 22.625C30.5752 22.4082 30.543 22.2148 30.4785 22.0449C30.4141 21.8691 30.2969 21.708 30.127 21.5615C29.957 21.415 29.7168 21.2686 29.4062 21.1221C29.0957 20.9697 28.6885 20.8145 28.1846 20.6562C27.6104 20.4688 27.0625 20.2578 26.541 20.0234C26.0254 19.7832 25.5654 19.5049 25.1611 19.1885C24.7568 18.8721 24.4375 18.5029 24.2031 18.0811C23.9746 17.6592 23.8604 17.167 23.8604 16.6045C23.8604 16.0596 23.9805 15.5674 24.2207 15.1279C24.4609 14.6885 24.7979 14.3135 25.2314 14.0029C25.665 13.6865 26.1748 13.4463 26.7607 13.2822C27.3467 13.1123 27.9912 13.0273 28.6943 13.0273C29.6318 13.0273 30.4551 13.1943 31.1641 13.5283C31.8789 13.8564 32.4355 14.3193 32.834 14.917C33.2324 15.5088 33.4316 16.1973 33.4316 16.9824H30.584C30.584 16.6367 30.5107 16.332 30.3643 16.0684C30.2236 15.7988 30.0068 15.5879 29.7139 15.4355C29.4268 15.2832 29.0664 15.207 28.6328 15.207C28.2109 15.207 27.8564 15.2715 27.5693 15.4004C27.2881 15.5234 27.0742 15.6934 26.9277 15.9102C26.7871 16.127 26.7168 16.3643 26.7168 16.6221C26.7168 16.8271 26.7695 17.0146 26.875 17.1846C26.9863 17.3486 27.1445 17.5039 27.3496 17.6504C27.5605 17.791 27.8184 17.9258 28.123 18.0547C28.4277 18.1836 28.7764 18.3066 29.1689 18.4238C29.8545 18.6406 30.4609 18.8809 30.9883 19.1445C31.5215 19.4082 31.9697 19.707 32.333 20.041C32.6963 20.375 32.9688 20.7529 33.1504 21.1748C33.3379 21.5967 33.4316 22.0742 33.4316 22.6074C33.4316 23.1758 33.3203 23.6797 33.0977 24.1191C32.8809 24.5586 32.5645 24.9336 32.1484 25.2441C31.7383 25.5488 31.2461 25.7803 30.6719 25.9385C30.0977 26.0967 29.4561 26.1758 28.7471 26.1758C28.1025 26.1758 27.4668 26.0938 26.8398 25.9297C26.2129 25.7598 25.6445 25.502 25.1348 25.1562C24.6309 24.8105 24.2266 24.3711 23.9219 23.8379C23.623 23.2988 23.4736 22.6602 23.4736 21.9219H26.3389C26.3389 22.3086 26.3945 22.6367 26.5059 22.9062C26.6172 23.1699 26.7754 23.3838 26.9805 23.5479C27.1914 23.7119 27.4463 23.8291 27.7451 23.8994C28.0439 23.9697 28.3779 24.0049 28.7471 24.0049C29.1748 24.0049 29.5205 23.9463 29.7842 23.8291C30.0537 23.7061 30.2529 23.5391 30.3818 23.3281C30.5107 23.1172 30.5752 22.8828 30.5752 22.625Z" fill="white"/>
</svg>
