<svg width="36" height="36" viewBox="0 0 36 36" fill="none" xmlns="http://www.w3.org/2000/svg">
<path d="M0 0H36V36H0V0Z" fill="#93C2DB"/>
<path d="M11.7559 22.7852V25H4.94434V22.7852H11.7559ZM5.91992 12.2031V25H3.05469V12.2031H5.91992ZM10.877 17.3535V19.498H4.94434V17.3535H10.877ZM11.7646 12.2031V14.4268H4.94434V12.2031H11.7646ZM19.7979 21.625C19.7979 21.4082 19.7656 21.2148 19.7012 21.0449C19.6367 20.8691 19.5195 20.708 19.3496 20.5615C19.1797 20.415 18.9395 20.2686 18.6289 20.1221C18.3184 19.9697 17.9111 19.8145 17.4072 19.6562C16.833 19.4688 16.2852 19.2578 15.7637 19.0234C15.248 18.7832 14.7881 18.5049 14.3838 18.1885C13.9795 17.8721 13.6602 17.5029 13.4258 17.0811C13.1973 16.6592 13.083 16.167 13.083 15.6045C13.083 15.0596 13.2031 14.5674 13.4434 14.1279C13.6836 13.6885 14.0205 13.3135 14.4541 13.0029C14.8877 12.6865 15.3975 12.4463 15.9834 12.2822C16.5693 12.1123 17.2139 12.0273 17.917 12.0273C18.8545 12.0273 19.6777 12.1943 20.3867 12.5283C21.1016 12.8564 21.6582 13.3193 22.0566 13.917C22.4551 14.5088 22.6543 15.1973 22.6543 15.9824H19.8066C19.8066 15.6367 19.7334 15.332 19.5869 15.0684C19.4463 14.7988 19.2295 14.5879 18.9365 14.4355C18.6494 14.2832 18.2891 14.207 17.8555 14.207C17.4336 14.207 17.0791 14.2715 16.792 14.4004C16.5107 14.5234 16.2969 14.6934 16.1504 14.9102C16.0098 15.127 15.9395 15.3643 15.9395 15.6221C15.9395 15.8271 15.9922 16.0146 16.0977 16.1846C16.209 16.3486 16.3672 16.5039 16.5723 16.6504C16.7832 16.791 17.041 16.9258 17.3457 17.0547C17.6504 17.1836 17.999 17.3066 18.3916 17.4238C19.0771 17.6406 19.6836 17.8809 20.2109 18.1445C20.7441 18.4082 21.1924 18.707 21.5557 19.041C21.9189 19.375 22.1914 19.7529 22.373 20.1748C22.5605 20.5967 22.6543 21.0742 22.6543 21.6074C22.6543 22.1758 22.543 22.6797 22.3203 23.1191C22.1035 23.5586 21.7871 23.9336 21.3711 24.2441C20.9609 24.5488 20.4688 24.7803 19.8945 24.9385C19.3203 25.0967 18.6787 25.1758 17.9697 25.1758C17.3252 25.1758 16.6895 25.0938 16.0625 24.9297C15.4355 24.7598 14.8672 24.502 14.3574 24.1562C13.8535 23.8105 13.4492 23.3711 13.1445 22.8379C12.8457 22.2988 12.6963 21.6602 12.6963 20.9219H15.5615C15.5615 21.3086 15.6172 21.6367 15.7285 21.9062C15.8398 22.1699 15.998 22.3838 16.2031 22.5479C16.4141 22.7119 16.6689 22.8291 16.9678 22.8994C17.2666 22.9697 17.6006 23.0049 17.9697 23.0049C18.3975 23.0049 18.7432 22.9463 19.0068 22.8291C19.2764 22.7061 19.4756 22.5391 19.6045 22.3281C19.7334 22.1172 19.7979 21.8828 19.7979 21.625ZM30.7227 12.0449H31.1445V14.2246H30.9863C30.3711 14.2246 29.8086 14.3125 29.2988 14.4883C28.7949 14.6641 28.3584 14.9248 27.9893 15.2705C27.6201 15.6104 27.3359 16.0322 27.1367 16.5361C26.9434 17.0342 26.8467 17.6084 26.8467 18.2588V20.4385C26.8467 20.8779 26.8848 21.2617 26.9609 21.5898C27.043 21.9121 27.1602 22.1816 27.3125 22.3984C27.4707 22.6094 27.6611 22.7705 27.8838 22.8818C28.1064 22.9873 28.3584 23.04 28.6396 23.04C28.8916 23.04 29.123 22.9844 29.334 22.873C29.5449 22.7617 29.7266 22.6035 29.8789 22.3984C30.0312 22.1934 30.1484 21.9561 30.2305 21.6865C30.3125 21.4111 30.3535 21.1123 30.3535 20.79C30.3535 20.4502 30.3096 20.1426 30.2217 19.8672C30.1396 19.5859 30.0195 19.3457 29.8613 19.1465C29.709 18.9473 29.5215 18.7949 29.2988 18.6895C29.0762 18.5781 28.8301 18.5225 28.5605 18.5225C28.1738 18.5225 27.8398 18.6104 27.5586 18.7861C27.2773 18.9619 27.0605 19.1875 26.9082 19.4629C26.7559 19.7383 26.6768 20.0195 26.6709 20.3066L25.9414 19.7002C25.9414 19.3018 26.0205 18.9092 26.1787 18.5225C26.3428 18.1299 26.5742 17.7754 26.873 17.459C27.1719 17.1367 27.5381 16.8818 27.9717 16.6943C28.4111 16.501 28.9121 16.4043 29.4746 16.4043C30.0664 16.4043 30.5879 16.5186 31.0391 16.7471C31.4902 16.9697 31.8682 17.2803 32.1729 17.6787C32.4834 18.0771 32.7148 18.543 32.8672 19.0762C33.0254 19.6035 33.1045 20.1689 33.1045 20.7725C33.1045 21.3936 32.9961 21.9736 32.7793 22.5127C32.5684 23.0459 32.2695 23.5117 31.8828 23.9102C31.4961 24.3086 31.0332 24.6191 30.4941 24.8418C29.9609 25.0645 29.3662 25.1758 28.71 25.1758C28.0303 25.1758 27.4092 25.0557 26.8467 24.8154C26.29 24.5752 25.8037 24.2324 25.3877 23.7871C24.9775 23.3359 24.6582 22.7969 24.4297 22.1699C24.207 21.543 24.0957 20.8398 24.0957 20.0605V19.0322C24.0957 17.9658 24.2598 17.0049 24.5879 16.1494C24.9219 15.2939 25.3848 14.5615 25.9766 13.9521C26.5742 13.3369 27.2773 12.8652 28.0859 12.5371C28.8945 12.209 29.7734 12.0449 30.7227 12.0449Z" fill="white"/>
</svg>
