<svg width="36" height="36" viewBox="0 0 36 36" fill="none" xmlns="http://www.w3.org/2000/svg">
<path d="M0 0H36V36H0V0Z" fill="#1976D2"/>
<path d="M14.0137 12.2031V25H11.1572V12.2031H14.0137ZM17.9072 12.2031V14.4268H7.34277V12.2031H17.9072ZM23.374 25H20.5615L20.5791 22.7852H23.374C24.0127 22.7852 24.5518 22.6387 24.9912 22.3457C25.4307 22.0469 25.7646 21.6074 25.9932 21.0273C26.2217 20.4414 26.3359 19.7295 26.3359 18.8916V18.3027C26.3359 17.6699 26.2715 17.1133 26.1426 16.6328C26.0137 16.1465 25.8232 15.7393 25.5713 15.4111C25.3193 15.083 25.0059 14.8369 24.6309 14.6729C24.2617 14.5088 23.8369 14.4268 23.3564 14.4268H20.5088V12.2031H23.3564C24.2236 12.2031 25.0146 12.3496 25.7295 12.6426C26.4502 12.9355 27.0713 13.3545 27.5928 13.8994C28.1201 14.4443 28.5273 15.0889 28.8145 15.833C29.1016 16.5771 29.2451 17.4062 29.2451 18.3203V18.8916C29.2451 19.7998 29.1016 20.6289 28.8145 21.3789C28.5273 22.123 28.1201 22.7676 27.5928 23.3125C27.0713 23.8516 26.4531 24.2676 25.7383 24.5605C25.0234 24.8535 24.2354 25 23.374 25ZM22.1875 12.2031V25H19.3223V12.2031H22.1875Z" fill="white"/>
</svg>
