<svg width="100" height="100" viewBox="0 0 100 100" fill="none" xmlns="http://www.w3.org/2000/svg">
<rect width="100" height="100" rx="37" fill="#F7F8F6"/>
<g filter="url(#filter0_d_0_18)">
<mask id="path-2-inside-1_0_18" fill="white">
<path fill-rule="evenodd" clip-rule="evenodd" d="M70 46.6L54.8 77H46L22.4 29.8L37.6 29.8L50.4 55.4L54.8 46.6H70Z"/>
</mask>
<path fill-rule="evenodd" clip-rule="evenodd" d="M70 46.6L54.8 77H46L22.4 29.8L37.6 29.8L50.4 55.4L54.8 46.6H70Z" fill="#005EB8"/>
<path d="M70 46.6L72.1466 47.6733L73.8833 44.2H70V46.6ZM54.8 77V79.4H56.2833L56.9466 78.0733L54.8 77ZM46 77L43.8534 78.0733L44.5167 79.4H46V77ZM22.4 29.8V27.4H18.5167L20.2534 30.8733L22.4 29.8ZM37.6 29.8L39.7466 28.7267L39.0833 27.4H37.6V29.8ZM50.4 55.4L48.2534 56.4733L50.4 60.7666L52.5466 56.4733L50.4 55.4ZM54.8 46.6V44.2H53.3167L52.6534 45.5267L54.8 46.6ZM67.8534 45.5267L52.6534 75.9267L56.9466 78.0733L72.1466 47.6733L67.8534 45.5267ZM54.8 74.6H46V79.4H54.8V74.6ZM48.1466 75.9267L24.5466 28.7267L20.2534 30.8733L43.8534 78.0733L48.1466 75.9267ZM22.4 32.2L37.6 32.2V27.4L22.4 27.4V32.2ZM35.4534 30.8733L48.2534 56.4733L52.5466 54.3267L39.7466 28.7267L35.4534 30.8733ZM52.5466 56.4733L56.9466 47.6733L52.6534 45.5267L48.2534 54.3267L52.5466 56.4733ZM54.8 49H70V44.2H54.8V49Z" fill="#005EB8" mask="url(#path-2-inside-1_0_18)"/>
</g>
<g filter="url(#filter1_d_0_18)">
<path fill-rule="evenodd" clip-rule="evenodd" d="M72.8 41H57.6L63.2 29.8L78.4 29.8L72.8 41Z" fill="#005EB8"/>
<path d="M76.4584 31L72.0584 39.8H59.5416L63.9416 31H76.4584Z" stroke="#005EB8" stroke-width="2.4"/>
</g>
<path d="M56.6351 70.688L54.0607 75.8H46.7416L24.3416 31H36.8573L56.6351 70.688Z" fill="#FFD101" stroke="#FFD101" stroke-width="2.4"/>
<path d="M59.6 31H74.821" stroke="#005EB8" stroke-width="2.4" stroke-linecap="square"/>
<path d="M55.6 35H70.821" stroke="#005EB8" stroke-width="2.4" stroke-linecap="square"/>
<path d="M51.6 39.8H66.821" stroke="#005EB8" stroke-width="2.4" stroke-linecap="square"/>
<defs>
<filter id="filter0_d_0_18" x="17.4" y="28.8" width="57.6" height="57.2" filterUnits="userSpaceOnUse" color-interpolation-filters="sRGB">
<feFlood flood-opacity="0" result="BackgroundImageFix"/>
<feColorMatrix in="SourceAlpha" type="matrix" values="0 0 0 0 0 0 0 0 0 0 0 0 0 0 0 0 0 0 127 0" result="hardAlpha"/>
<feOffset dy="4"/>
<feGaussianBlur stdDeviation="2.5"/>
<feColorMatrix type="matrix" values="0 0 0 0 0 0 0 0 0 0 0 0 0 0 0 0 0 0 0.0906646 0"/>
<feBlend mode="normal" in2="BackgroundImageFix" result="effect1_dropShadow_0_18"/>
<feBlend mode="normal" in="SourceGraphic" in2="effect1_dropShadow_0_18" result="shape"/>
</filter>
<filter id="filter1_d_0_18" x="52.6" y="28.8" width="30.8" height="21.2" filterUnits="userSpaceOnUse" color-interpolation-filters="sRGB">
<feFlood flood-opacity="0" result="BackgroundImageFix"/>
<feColorMatrix in="SourceAlpha" type="matrix" values="0 0 0 0 0 0 0 0 0 0 0 0 0 0 0 0 0 0 127 0" result="hardAlpha"/>
<feOffset dy="4"/>
<feGaussianBlur stdDeviation="2.5"/>
<feColorMatrix type="matrix" values="0 0 0 0 0 0 0 0 0 0 0 0 0 0 0 0 0 0 0.0906646 0"/>
<feBlend mode="normal" in2="BackgroundImageFix" result="effect1_dropShadow_0_18"/>
<feBlend mode="normal" in="SourceGraphic" in2="effect1_dropShadow_0_18" result="shape"/>
</filter>
</defs>
</svg>
