<svg xmlns="http://www.w3.org/2000/svg" xmlns:xlink="http://www.w3.org/1999/xlink" width="960" height="385.65"><rect width="960" height="385.65" rx="5" ry="5" class="a"/><svg y="0%" x="0%"><circle cx="20" cy="20" r="6" fill="#ff5f58"/><circle cx="40" cy="20" r="6" fill="#ffbd2e"/><circle cx="60" cy="20" r="6" fill="#18c132"/></svg><svg height="325.65" viewBox="0 0 92 32.565" width="920" x="15" xmlns="http://www.w3.org/2000/svg" xmlns:xlink="http://www.w3.org/1999/xlink" y="50"><style>@keyframes u{0%{transform:translateX(0)}1.1%{transform:translateX(-92px)}9%{transform:translateX(-276px)}9.1%{transform:translateX(-368px)}11.6%{transform:translateX(-644px)}14.2%{transform:translateX(-736px)}19.9%{transform:translateX(-828px)}22%{transform:translateX(-920px)}23.2%{transform:translateX(-1012px)}23.8%{transform:translateX(-1104px)}25.2%{transform:translateX(-1196px)}26.4%{transform:translateX(-1288px)}27.3%{transform:translateX(-1380px)}27.8%{transform:translateX(-1472px)}28.8%{transform:translateX(-1564px)}30%{transform:translateX(-1656px)}30.5%{transform:translateX(-1748px)}31.4%{transform:translateX(-1840px)}32.5%{transform:translateX(-1932px)}33.2%{transform:translateX(-2024px)}33.6%{transform:translateX(-2116px)}34.1%{transform:translateX(-2208px)}34.9%{transform:translateX(-2300px)}35.6%{transform:translateX(-2392px)}37%{transform:translateX(-2484px)}39.1%{transform:translateX(-2576px)}42.5%{transform:translateX(-2760px)}42.7%{transform:translateX(-2852px)}47.4%{transform:translateX(-3036px)}48.6%{transform:translateX(-3128px)}49%{transform:translateX(-3220px)}49.4%{transform:translateX(-3312px)}49.8%{transform:translateX(-3404px)}50.3%{transform:translateX(-3496px)}50.6%{transform:translateX(-3588px)}51.1%{transform:translateX(-3680px)}51.5%{transform:translateX(-3772px)}51.8%{transform:translateX(-3864px)}52.2%{transform:translateX(-3956px)}52.6%{transform:translateX(-4048px)}52.9%{transform:translateX(-4140px)}53.3%{transform:translateX(-4232px)}53.6%{transform:translateX(-4324px)}54%{transform:translateX(-4416px)}54.3%{transform:translateX(-4508px)}54.7%{transform:translateX(-4600px)}55.1%{transform:translateX(-4692px)}55.4%{transform:translateX(-4784px)}55.8%{transform:translateX(-4876px)}56.1%{transform:translateX(-4968px)}56.5%{transform:translateX(-5060px)}56.8%{transform:translateX(-5152px)}57.2%{transform:translateX(-5244px)}57.6%{transform:translateX(-5336px)}57.9%{transform:translateX(-5428px)}58.3%{transform:translateX(-5520px)}58.6%{transform:translateX(-5612px)}59%{transform:translateX(-5704px)}59.3%{transform:translateX(-5796px)}59.7%{transform:translateX(-5888px)}60.1%{transform:translateX(-5980px)}60.4%{transform:translateX(-6072px)}60.8%{transform:translateX(-6164px)}61.1%{transform:translateX(-6256px)}61.5%{transform:translateX(-6348px)}61.9%{transform:translateX(-6440px)}62.2%{transform:translateX(-6532px)}62.6%{transform:translateX(-6624px)}62.9%{transform:translateX(-6716px)}63.3%{transform:translateX(-6808px)}63.7%{transform:translateX(-6900px)}64%{transform:translateX(-6992px)}64.4%{transform:translateX(-7084px)}64.8%{transform:translateX(-7176px)}65.1%{transform:translateX(-7268px)}65.5%{transform:translateX(-7360px)}65.8%{transform:translateX(-7452px)}66.2%{transform:translateX(-7544px)}66.5%{transform:translateX(-7636px)}66.9%{transform:translateX(-7728px)}67.3%{transform:translateX(-7820px)}67.6%{transform:translateX(-7912px)}68%{transform:translateX(-8004px)}68.3%{transform:translateX(-8096px)}68.7%{transform:translateX(-8188px)}69.1%{transform:translateX(-8280px)}69.4%{transform:translateX(-8372px)}69.8%{transform:translateX(-8464px)}70.1%{transform:translateX(-8556px)}70.5%{transform:translateX(-8648px)}70.9%{transform:translateX(-8740px)}71.2%{transform:translateX(-8832px)}71.6%{transform:translateX(-8924px)}72%{transform:translateX(-9016px)}72.3%{transform:translateX(-9108px)}72.7%{transform:translateX(-9200px)}73.1%{transform:translateX(-9292px)}73.4%{transform:translateX(-9384px)}73.8%{transform:translateX(-9476px)}74.2%{transform:translateX(-9568px)}74.5%{transform:translateX(-9660px)}74.9%{transform:translateX(-9752px)}75.2%{transform:translateX(-9844px)}75.6%{transform:translateX(-9936px)}76%{transform:translateX(-10028px)}76.3%{transform:translateX(-10120px)}76.7%{transform:translateX(-10212px)}77%{transform:translateX(-10304px)}77.4%{transform:translateX(-10396px)}77.7%{transform:translateX(-10488px)}78.1%{transform:translateX(-10580px)}78.4%{transform:translateX(-10672px)}78.8%{transform:translateX(-10764px)}79.2%{transform:translateX(-10856px)}79.5%{transform:translateX(-10948px)}79.9%{transform:translateX(-11040px)}80.3%{transform:translateX(-11132px)}80.6%{transform:translateX(-11224px)}81%{transform:translateX(-11316px)}81.4%{transform:translateX(-11408px)}81.8%{transform:translateX(-11500px)}82.1%{transform:translateX(-11592px)}82.5%{transform:translateX(-11684px)}82.8%{transform:translateX(-11776px)}83.2%{transform:translateX(-11868px)}83.6%{transform:translateX(-11960px)}83.9%{transform:translateX(-12052px)}84.3%{transform:translateX(-12144px)}84.6%{transform:translateX(-12236px)}85%{transform:translateX(-12328px)}85.4%{transform:translateX(-12420px)}85.7%{transform:translateX(-12512px)}86.1%{transform:translateX(-12604px)}86.4%{transform:translateX(-12696px)}86.8%{transform:translateX(-12788px)}87.1%{transform:translateX(-12880px)}87.5%{transform:translateX(-12972px)}87.8%{transform:translateX(-13064px)}88.2%{transform:translateX(-13156px)}88.5%{transform:translateX(-13248px)}88.9%{transform:translateX(-13340px)}89.3%{transform:translateX(-13432px)}89.6%{transform:translateX(-13524px)}90%{transform:translateX(-13616px)}90.3%{transform:translateX(-13708px)}90.4%{transform:translateX(-14444px)}90.5%{transform:translateX(-14628px)}90.6%{transform:translateX(-14720px)}93.4%{transform:translateX(-14904px)}to{transform:translateX(-14996px)}}.a{fill:#0f190b}.f,.g,.h,.i{fill:#33bbc8;font-weight:700}.g,.h,.i{fill:#fff}.h,.i{fill:#c23621}.i{fill:#25bc24}.j{fill:#f2f2f2}.k{fill:#818383}.l{fill:#492ee1}.m{fill:#d338d3}.n{fill:#b9c0cb}.o{fill:#cbcccd}.p{fill:#dbab79}</style><g font-size="1.67" font-family="Monaco,Consolas,Menlo,'Bitstream Vera Sans Mono','Powerline Symbols',monospace"><defs><symbol id="1"><text y="1.67" class="f">projects/@verdaccio/test_install</text><text x="33.066" y="1.67" class="g">is</text><text x="36.072" y="1.67" class="h">📦</text><text x="39.078" y="1.67" class="h">v1.0.0</text><text x="46.092" y="1.67" class="g">via</text><text x="50.1" y="1.67" class="i">⬢</text><text x="52.104" y="1.67" class="i">v9.9.0</text><text x="59.118" y="1.67" class="g">on</text><text x="62.124" y="1.67" class="f">🐳</text><text x="65.13" y="1.67" class="f">v18.05.0-ce-rc1</text></symbol><symbol id="2"><text y="1.67" class="i">➜</text></symbol><symbol id="3"><text y="1.67" class="i">➜</text><text x="2.004" y="1.67" class="j">npm</text></symbol><symbol id="4"><text y="1.67" class="i">➜</text><text x="2.004" y="1.67" class="j">npm</text><text x="6.012" y="1.67" class="j">install</text></symbol><symbol id="5"><text y="1.67" class="i">➜</text><text x="2.004" y="1.67" class="j">npm</text><text x="6.012" y="1.67" class="j">install</text><text x="14.028" y="1.67" class="j">lodash</text></symbol><symbol id="6"><text y="1.67" class="i">➜</text><text x="2.004" y="1.67" class="j">npm</text><text x="6.012" y="1.67" class="j">install</text><text x="14.028" y="1.67" class="j">lodash</text><text x="21.042" y="1.67" class="j">--registry</text><text x="32.064" y="1.67" class="j">http://localhost:4873</text></symbol><symbol id="7"><text y="1.67" class="j">⸨</text><text x="1.002" y="1.67" class="k">░░░░░░░░░░░░░░░░░░</text><text x="19.038" y="1.67" class="j">⸩</text><text x="21.042" y="1.67" class="j">⠧</text><text x="23.046" y="1.67" class="j">rollbackFailedOptional:</text>0<text x="47.094" y="1.67" class="l">verb</text><text x="52.104" y="1.67" class="m">npm-session</text><text x="64.128" y="1.67" class="j">3be12038cd028ddc</text></symbol><symbol id="8"><text y="1.67" class="j">⸨</text><path class="n" d="M1.002 0h7v2.171h-7z"/><text x="1.002" y="1.67" class="a"></text><text x="8.016" y="1.67" class="k">░░░░░░░░░░░</text><text x="19.038" y="1.67" class="j">⸩</text><text x="21.042" y="1.67" class="j">⠼</text><text x="23.046" y="1.67" class="j">extract:lodash:</text>0<text x="39.078" y="1.67" class="l">verb</text><text x="44.088" y="1.67" class="m">lock</text><text x="49.098" y="1.67" class="j">using</text><text x="55.11" y="1.67" class="j">/Users/jpicado/.npm/_locks/staging-7</text></symbol><symbol id="9">0<text y="1.67" class="o">npm</text><path class="p" d="M4.008 0h4v2.171h-4z"/><text x="4.008" y="1.67" class="q">WARN</text></symbol><symbol id="10">0<text y="1.67" class="o">npm</text><path class="p" d="M4.008 0h4v2.171h-4z"/><text x="4.008" y="1.67" class="q">WARN</text><text x="9.018" y="1.67" class="j">test_install@1.0.0</text><text x="28.056" y="1.67" class="j">No</text><text x="31.062" y="1.67" class="j">description</text></symbol><symbol id="11">0<text y="1.67" class="o">npm</text><path class="p" d="M4.008 0h4v2.171h-4z"/><text x="4.008" y="1.67" class="q">WARN</text><text x="9.018" y="1.67" class="j">test_install@1.0.0</text><text x="28.056" y="1.67" class="j">No</text><text x="31.062" y="1.67" class="j">repository</text><text x="42.084" y="1.67" class="j">field.</text></symbol><symbol id="12"><text y="1.67" class="j">+</text><text x="2.004" y="1.67" class="j">lodash@4.17.10</text></symbol><symbol id="13"><text y="1.67" class="j">added</text><text x="6.012" y="1.67" class="j">1</text><text x="8.016" y="1.67" class="j">package</text><text x="16.032" y="1.67" class="j">from</text><text x="21.042" y="1.67" class="j">2</text><text x="23.046" y="1.67" class="j">contributors</text><text x="36.072" y="1.67" class="j">in</text><text x="39.078" y="1.67" class="j">6.323s</text></symbol><symbol id="14"><text y="1.67" class="f">projects/@verdaccio/test_install</text><text x="33.066" y="1.67" class="g">is</text><text x="36.072" y="1.67" class="h">📦</text><text x="39.078" y="1.67" class="h">v1.0.0</text><text x="46.092" y="1.67" class="g">via</text><text x="50.1" y="1.67" class="i">⬢</text><text x="52.104" y="1.67" class="i">v9.9.0</text><text x="59.118" y="1.67" class="g">on</text><text x="62.124" y="1.67" class="f">🐳</text><text x="65.13" y="1.67" class="f">v18.05.0-ce-rc1</text><text x="81.162" y="1.67" class="g">took</text><text x="86.172" y="1.67" fill="#adad27" font-weight="700">7s</text></symbol><symbol id="a"><path fill="transparent" d="M0 0h92v15H0z"/></symbol><symbol id="b"><path fill="#4d4d4d" d="M0 0h1.102v2.171H0z"/></symbol></defs><path class="a" d="M0 0h92v32.565H0z"/><g style="animation-duration:14.666449s;animation-iteration-count:infinite;animation-name:u;animation-timing-function:steps(1,end)"><svg width="15088"><svg><use xlink:href="#a"/><use xlink:href="#b" x="-.004"/></svg><svg x="92"><use xlink:href="#a"/><use xlink:href="#b" x="-.004"/></svg><svg x="184"><use xlink:href="#a"/><use xlink:href="#b" x="-.004"/></svg><svg x="276"><use xlink:href="#a"/><use xlink:href="#b" x="-.004"/></svg><svg x="368"><use xlink:href="#a"/><use xlink:href="#b" x="-.004"/></svg><svg x="460"><use xlink:href="#a"/><use xlink:href="#b" x="1.996" y="4.317"/><use xlink:href="#1" y="2.171"/><use xlink:href="#2" y="4.342"/></svg><svg x="552"><use xlink:href="#a"/><use xlink:href="#b" x="1.996" y="4.317"/><use xlink:href="#1" y="2.171"/><use xlink:href="#2" y="4.342"/></svg><svg x="644"><use xlink:href="#a"/><use xlink:href="#b" x="1.996" y="4.317"/><use xlink:href="#1" y="2.171"/><use xlink:href="#2" y="4.342"/></svg><svg x="736"><use xlink:href="#a"/><use xlink:href="#b" x="2.996" y="4.317"/><use xlink:href="#1" y="2.171"/><text y="6.012" class="i">➜</text><text x="2.004" y="6.012" class="j">n</text></svg><svg x="828"><use xlink:href="#a"/><use xlink:href="#b" x="3.996" y="4.317"/><use xlink:href="#1" y="2.171"/><text y="6.012" class="i">➜</text><text x="2.004" y="6.012" class="j">np</text></svg><svg x="920"><use xlink:href="#a"/><use xlink:href="#b" x="4.996" y="4.317"/><use xlink:href="#1" y="2.171"/><use xlink:href="#3" y="4.342"/></svg><svg x="1012"><use xlink:href="#a"/><use xlink:href="#b" x="5.996" y="4.317"/><use xlink:href="#1" y="2.171"/><use xlink:href="#3" y="4.342"/></svg><svg x="1104"><use xlink:href="#a"/><use xlink:href="#b" x="6.996" y="4.317"/><use xlink:href="#1" y="2.171"/><text y="6.012" class="i">➜</text><text x="2.004" y="6.012" class="j">npm</text><text x="6.012" y="6.012" class="j">i</text></svg><svg x="1196"><use xlink:href="#a"/><use xlink:href="#b" x="7.996" y="4.317"/><use xlink:href="#1" y="2.171"/><text y="6.012" class="i">➜</text><text x="2.004" y="6.012" class="j">npm</text><text x="6.012" y="6.012" class="j">in</text></svg><svg x="1288"><use xlink:href="#a"/><use xlink:href="#b" x="8.996" y="4.317"/><use xlink:href="#1" y="2.171"/><text y="6.012" class="i">➜</text><text x="2.004" y="6.012" class="j">npm</text><text x="6.012" y="6.012" class="j">ins</text></svg><svg x="1380"><use xlink:href="#a"/><use xlink:href="#b" x="9.996" y="4.317"/><use xlink:href="#1" y="2.171"/><text y="6.012" class="i">➜</text><text x="2.004" y="6.012" class="j">npm</text><text x="6.012" y="6.012" class="j">inst</text></svg><svg x="1472"><use xlink:href="#a"/><use xlink:href="#b" x="10.996" y="4.317"/><use xlink:href="#1" y="2.171"/><text y="6.012" class="i">➜</text><text x="2.004" y="6.012" class="j">npm</text><text x="6.012" y="6.012" class="j">insta</text></svg><svg x="1564"><use xlink:href="#a"/><use xlink:href="#b" x="11.996" y="4.317"/><use xlink:href="#1" y="2.171"/><text y="6.012" class="i">➜</text><text x="2.004" y="6.012" class="j">npm</text><text x="6.012" y="6.012" class="j">instal</text></svg><svg x="1656"><use xlink:href="#a"/><use xlink:href="#b" x="12.996" y="4.317"/><use xlink:href="#1" y="2.171"/><use xlink:href="#4" y="4.342"/></svg><svg x="1748"><use xlink:href="#a"/><use xlink:href="#b" x="13.996" y="4.317"/><use xlink:href="#1" y="2.171"/><use xlink:href="#4" y="4.342"/></svg><svg x="1840"><use xlink:href="#a"/><use xlink:href="#b" x="14.996" y="4.317"/><use xlink:href="#1" y="2.171"/><text y="6.012" class="i">➜</text><text x="2.004" y="6.012" class="j">npm</text><text x="6.012" y="6.012" class="j">install</text><text x="14.028" y="6.012" class="j">l</text></svg><svg x="1932"><use xlink:href="#a"/><use xlink:href="#b" x="15.996" y="4.317"/><use xlink:href="#1" y="2.171"/><text y="6.012" class="i">➜</text><text x="2.004" y="6.012" class="j">npm</text><text x="6.012" y="6.012" class="j">install</text><text x="14.028" y="6.012" class="j">lo</text></svg><svg x="2024"><use xlink:href="#a"/><use xlink:href="#b" x="16.996" y="4.317"/><use xlink:href="#1" y="2.171"/><text y="6.012" class="i">➜</text><text x="2.004" y="6.012" class="j">npm</text><text x="6.012" y="6.012" class="j">install</text><text x="14.028" y="6.012" class="j">lod</text></svg><svg x="2116"><use xlink:href="#a"/><use xlink:href="#b" x="17.996" y="4.317"/><use xlink:href="#1" y="2.171"/><text y="6.012" class="i">➜</text><text x="2.004" y="6.012" class="j">npm</text><text x="6.012" y="6.012" class="j">install</text><text x="14.028" y="6.012" class="j">loda</text></svg><svg x="2208"><use xlink:href="#a"/><use xlink:href="#b" x="18.996" y="4.317"/><use xlink:href="#1" y="2.171"/><text y="6.012" class="i">➜</text><text x="2.004" y="6.012" class="j">npm</text><text x="6.012" y="6.012" class="j">install</text><text x="14.028" y="6.012" class="j">lodas</text></svg><svg x="2300"><use xlink:href="#a"/><use xlink:href="#b" x="19.996" y="4.317"/><use xlink:href="#1" y="2.171"/><use xlink:href="#5" y="4.342"/></svg><svg x="2392"><use xlink:href="#a"/><use xlink:href="#b" x="20.996" y="4.317"/><use xlink:href="#1" y="2.171"/><use xlink:href="#5" y="4.342"/></svg><svg x="2484"><use xlink:href="#a"/><use xlink:href="#b" x="52.996" y="4.317"/><use xlink:href="#1" y="2.171"/><text y="6.012" class="i">➜</text><text x="2.004" y="6.012" class="j">npm</text><text x="6.012" y="6.012" class="j">install</text><text x="14.028" y="6.012" class="j">lodash</text><path class="n" d="M21.042 4.342h32v2.171h-32z"/><text x="21.042" y="6.012" class="a">--registry http://localhost:4873</text></svg><svg x="2576"><use xlink:href="#a"/><use xlink:href="#b" x="52.996" y="4.317"/><use xlink:href="#1" y="2.171"/><use xlink:href="#6" y="4.342"/></svg><svg x="2668"><use xlink:href="#a"/><use xlink:href="#b" x="52.996" y="4.317"/><use xlink:href="#1" y="2.171"/><use xlink:href="#6" y="4.342"/></svg><svg x="2760"><use xlink:href="#a"/><use xlink:href="#b" x="-.004" y="6.488"/><use xlink:href="#1" y="2.171"/><use xlink:href="#6" y="4.342"/></svg><svg x="2852"><use xlink:href="#a"/><use xlink:href="#b" x="-.004" y="6.488"/><use xlink:href="#1" y="2.171"/><use xlink:href="#6" y="4.342"/></svg><svg x="2944"><use xlink:href="#a"/><use xlink:href="#1" y="2.171"/><use xlink:href="#6" y="4.342"/></svg><svg x="3036"><use xlink:href="#a"/><use xlink:href="#1" y="2.171"/><use xlink:href="#6" y="4.342"/><use xlink:href="#7" y="6.513"/></svg><svg x="3128"><use xlink:href="#a"/><use xlink:href="#1" y="2.171"/><use xlink:href="#6" y="4.342"/><use xlink:href="#7" y="6.513"/></svg><svg x="3220"><use xlink:href="#a"/><use xlink:href="#1" y="2.171"/><use xlink:href="#6" y="4.342"/><use xlink:href="#7" y="6.513"/></svg><svg x="3312"><use xlink:href="#a"/><use xlink:href="#1" y="2.171"/><use xlink:href="#6" y="4.342"/><use xlink:href="#7" y="6.513"/></svg><svg x="3404"><use xlink:href="#a"/><use xlink:href="#1" y="2.171"/><use xlink:href="#6" y="4.342"/><use xlink:href="#7" y="6.513"/></svg><svg x="3496"><use xlink:href="#a"/><use xlink:href="#1" y="2.171"/><use xlink:href="#6" y="4.342"/><use xlink:href="#7" y="6.513"/></svg><svg x="3588"><use xlink:href="#a"/><use xlink:href="#1" y="2.171"/><use xlink:href="#6" y="4.342"/><text y="8.183" class="j">⸨</text><text x="1.002" y="8.183" class="k">░░░░░░░░░░░░░░░░░░</text><text x="19.038" y="8.183" class="j">⸩</text><text x="21.042" y="8.183" class="j">⠇</text><text x="23.046" y="8.183" class="j">rollbackFailedOptional:</text>0<text x="47.094" y="8.183" class="l">verb</text><text x="52.104" y="8.183" class="m">npm-session</text><text x="64.128" y="8.183" class="j">3be12038cd028ddc</text></svg><svg x="3680"><use xlink:href="#a"/><use xlink:href="#1" y="2.171"/><use xlink:href="#6" y="4.342"/><text y="8.183" class="j">⸨</text><path class="n" d="M1.002 6.513h7v2.171h-7z"/><text x="1.002" y="8.183" class="a"></text><text x="8.016" y="8.183" class="k">░░░░░░░░░░░</text><text x="19.038" y="8.183" class="j">⸩</text><text x="21.042" y="8.183" class="j">⠋</text><text x="23.046" y="8.183" class="j">postinstall:</text><path class="n" d="M36.072 6.513h4v2.171h-4z"/><text x="36.072" y="8.183" class="a">sill</text><text x="41.082" y="8.183" class="m">install</text><text x="49.098" y="8.183" class="j">executeActions</text></svg><svg x="3772"><use xlink:href="#a"/><use xlink:href="#1" y="2.171"/><use xlink:href="#6" y="4.342"/><use xlink:href="#8" y="6.513"/></svg><svg x="3864"><use xlink:href="#a"/><use xlink:href="#1" y="2.171"/><use xlink:href="#6" y="4.342"/><use xlink:href="#8" y="6.513"/></svg><svg x="3956"><use xlink:href="#a"/><use xlink:href="#1" y="2.171"/><use xlink:href="#6" y="4.342"/><use xlink:href="#8" y="6.513"/></svg><svg x="4048"><use xlink:href="#a"/><use xlink:href="#1" y="2.171"/><use xlink:href="#6" y="4.342"/><use xlink:href="#8" y="6.513"/></svg><svg x="4140"><use xlink:href="#a"/><use xlink:href="#1" y="2.171"/><use xlink:href="#6" y="4.342"/><use xlink:href="#8" y="6.513"/></svg><svg x="4232"><use xlink:href="#a"/><use xlink:href="#1" y="2.171"/><use xlink:href="#6" y="4.342"/><use xlink:href="#8" y="6.513"/></svg><svg x="4324"><use xlink:href="#a"/><use xlink:href="#1" y="2.171"/><use xlink:href="#6" y="4.342"/><use xlink:href="#8" y="6.513"/></svg><svg x="4416"><use xlink:href="#a"/><use xlink:href="#1" y="2.171"/><use xlink:href="#6" y="4.342"/><use xlink:href="#8" y="6.513"/></svg><svg x="4508"><use xlink:href="#a"/><use xlink:href="#1" y="2.171"/><use xlink:href="#6" y="4.342"/><use xlink:href="#8" y="6.513"/></svg><svg x="4600"><use xlink:href="#a"/><use xlink:href="#1" y="2.171"/><use xlink:href="#6" y="4.342"/><use xlink:href="#8" y="6.513"/></svg><svg x="4692"><use xlink:href="#a"/><use xlink:href="#1" y="2.171"/><use xlink:href="#6" y="4.342"/><use xlink:href="#8" y="6.513"/></svg><svg x="4784"><use xlink:href="#a"/><use xlink:href="#1" y="2.171"/><use xlink:href="#6" y="4.342"/><use xlink:href="#8" y="6.513"/></svg><svg x="4876"><use xlink:href="#a"/><use xlink:href="#1" y="2.171"/><use xlink:href="#6" y="4.342"/><use xlink:href="#8" y="6.513"/></svg><svg x="4968"><use xlink:href="#a"/><use xlink:href="#1" y="2.171"/><use xlink:href="#6" y="4.342"/><use xlink:href="#8" y="6.513"/></svg><svg x="5060"><use xlink:href="#a"/><use xlink:href="#1" y="2.171"/><use xlink:href="#6" y="4.342"/><use xlink:href="#8" y="6.513"/></svg><svg x="5152"><use xlink:href="#a"/><use xlink:href="#1" y="2.171"/><use xlink:href="#6" y="4.342"/><use xlink:href="#8" y="6.513"/></svg><svg x="5244"><use xlink:href="#a"/><use xlink:href="#1" y="2.171"/><use xlink:href="#6" y="4.342"/><use xlink:href="#8" y="6.513"/></svg><svg x="5336"><use xlink:href="#a"/><use xlink:href="#1" y="2.171"/><use xlink:href="#6" y="4.342"/><use xlink:href="#8" y="6.513"/></svg><svg x="5428"><use xlink:href="#a"/><use xlink:href="#1" y="2.171"/><use xlink:href="#6" y="4.342"/><use xlink:href="#8" y="6.513"/></svg><svg x="5520"><use xlink:href="#a"/><use xlink:href="#1" y="2.171"/><use xlink:href="#6" y="4.342"/><use xlink:href="#8" y="6.513"/></svg><svg x="5612"><use xlink:href="#a"/><use xlink:href="#1" y="2.171"/><use xlink:href="#6" y="4.342"/><use xlink:href="#8" y="6.513"/></svg><svg x="5704"><use xlink:href="#a"/><use xlink:href="#1" y="2.171"/><use xlink:href="#6" y="4.342"/><use xlink:href="#8" y="6.513"/></svg><svg x="5796"><use xlink:href="#a"/><use xlink:href="#1" y="2.171"/><use xlink:href="#6" y="4.342"/><use xlink:href="#8" y="6.513"/></svg><svg x="5888"><use xlink:href="#a"/><use xlink:href="#1" y="2.171"/><use xlink:href="#6" y="4.342"/><use xlink:href="#8" y="6.513"/></svg><svg x="5980"><use xlink:href="#a"/><use xlink:href="#1" y="2.171"/><use xlink:href="#6" y="4.342"/><use xlink:href="#8" y="6.513"/></svg><svg x="6072"><use xlink:href="#a"/><use xlink:href="#1" y="2.171"/><use xlink:href="#6" y="4.342"/><use xlink:href="#8" y="6.513"/></svg><svg x="6164"><use xlink:href="#a"/><use xlink:href="#1" y="2.171"/><use xlink:href="#6" y="4.342"/><use xlink:href="#8" y="6.513"/></svg><svg x="6256"><use xlink:href="#a"/><use xlink:href="#1" y="2.171"/><use xlink:href="#6" y="4.342"/><use xlink:href="#8" y="6.513"/></svg><svg x="6348"><use xlink:href="#a"/><use xlink:href="#1" y="2.171"/><use xlink:href="#6" y="4.342"/><use xlink:href="#8" y="6.513"/></svg><svg x="6440"><use xlink:href="#a"/><use xlink:href="#1" y="2.171"/><use xlink:href="#6" y="4.342"/><use xlink:href="#8" y="6.513"/></svg><svg x="6532"><use xlink:href="#a"/><use xlink:href="#1" y="2.171"/><use xlink:href="#6" y="4.342"/><use xlink:href="#8" y="6.513"/></svg><svg x="6624"><use xlink:href="#a"/><use xlink:href="#1" y="2.171"/><use xlink:href="#6" y="4.342"/><use xlink:href="#8" y="6.513"/></svg><svg x="6716"><use xlink:href="#a"/><use xlink:href="#1" y="2.171"/><use xlink:href="#6" y="4.342"/><use xlink:href="#8" y="6.513"/></svg><svg x="6808"><use xlink:href="#a"/><use xlink:href="#1" y="2.171"/><use xlink:href="#6" y="4.342"/><use xlink:href="#8" y="6.513"/></svg><svg x="6900"><use xlink:href="#a"/><use xlink:href="#1" y="2.171"/><use xlink:href="#6" y="4.342"/><use xlink:href="#8" y="6.513"/></svg><svg x="6992"><use xlink:href="#a"/><use xlink:href="#1" y="2.171"/><use xlink:href="#6" y="4.342"/><use xlink:href="#8" y="6.513"/></svg><svg x="7084"><use xlink:href="#a"/><use xlink:href="#1" y="2.171"/><use xlink:href="#6" y="4.342"/><use xlink:href="#8" y="6.513"/></svg><svg x="7176"><use xlink:href="#a"/><use xlink:href="#1" y="2.171"/><use xlink:href="#6" y="4.342"/><use xlink:href="#8" y="6.513"/></svg><svg x="7268"><use xlink:href="#a"/><use xlink:href="#1" y="2.171"/><use xlink:href="#6" y="4.342"/><use xlink:href="#8" y="6.513"/></svg><svg x="7360"><use xlink:href="#a"/><use xlink:href="#1" y="2.171"/><use xlink:href="#6" y="4.342"/><use xlink:href="#8" y="6.513"/></svg><svg x="7452"><use xlink:href="#a"/><use xlink:href="#1" y="2.171"/><use xlink:href="#6" y="4.342"/><use xlink:href="#8" y="6.513"/></svg><svg x="7544"><use xlink:href="#a"/><use xlink:href="#1" y="2.171"/><use xlink:href="#6" y="4.342"/><use xlink:href="#8" y="6.513"/></svg><svg x="7636"><use xlink:href="#a"/><use xlink:href="#1" y="2.171"/><use xlink:href="#6" y="4.342"/><use xlink:href="#8" y="6.513"/></svg><svg x="7728"><use xlink:href="#a"/><use xlink:href="#1" y="2.171"/><use xlink:href="#6" y="4.342"/><use xlink:href="#8" y="6.513"/></svg><svg x="7820"><use xlink:href="#a"/><use xlink:href="#1" y="2.171"/><use xlink:href="#6" y="4.342"/><use xlink:href="#8" y="6.513"/></svg><svg x="7912"><use xlink:href="#a"/><use xlink:href="#1" y="2.171"/><use xlink:href="#6" y="4.342"/><use xlink:href="#8" y="6.513"/></svg><svg x="8004"><use xlink:href="#a"/><use xlink:href="#1" y="2.171"/><use xlink:href="#6" y="4.342"/><use xlink:href="#8" y="6.513"/></svg><svg x="8096"><use xlink:href="#a"/><use xlink:href="#1" y="2.171"/><use xlink:href="#6" y="4.342"/><use xlink:href="#8" y="6.513"/></svg><svg x="8188"><use xlink:href="#a"/><use xlink:href="#1" y="2.171"/><use xlink:href="#6" y="4.342"/><use xlink:href="#8" y="6.513"/></svg><svg x="8280"><use xlink:href="#a"/><use xlink:href="#1" y="2.171"/><use xlink:href="#6" y="4.342"/><use xlink:href="#8" y="6.513"/></svg><svg x="8372"><use xlink:href="#a"/><use xlink:href="#1" y="2.171"/><use xlink:href="#6" y="4.342"/><use xlink:href="#8" y="6.513"/></svg><svg x="8464"><use xlink:href="#a"/><use xlink:href="#1" y="2.171"/><use xlink:href="#6" y="4.342"/><use xlink:href="#8" y="6.513"/></svg><svg x="8556"><use xlink:href="#a"/><use xlink:href="#1" y="2.171"/><use xlink:href="#6" y="4.342"/><use xlink:href="#8" y="6.513"/></svg><svg x="8648"><use xlink:href="#a"/><use xlink:href="#1" y="2.171"/><use xlink:href="#6" y="4.342"/><use xlink:href="#8" y="6.513"/></svg><svg x="8740"><use xlink:href="#a"/><use xlink:href="#1" y="2.171"/><use xlink:href="#6" y="4.342"/><use xlink:href="#8" y="6.513"/></svg><svg x="8832"><use xlink:href="#a"/><use xlink:href="#1" y="2.171"/><use xlink:href="#6" y="4.342"/><use xlink:href="#8" y="6.513"/></svg><svg x="8924"><use xlink:href="#a"/><use xlink:href="#1" y="2.171"/><use xlink:href="#6" y="4.342"/><use xlink:href="#8" y="6.513"/></svg><svg x="9016"><use xlink:href="#a"/><use xlink:href="#1" y="2.171"/><use xlink:href="#6" y="4.342"/><use xlink:href="#8" y="6.513"/></svg><svg x="9108"><use xlink:href="#a"/><use xlink:href="#1" y="2.171"/><use xlink:href="#6" y="4.342"/><use xlink:href="#8" y="6.513"/></svg><svg x="9200"><use xlink:href="#a"/><use xlink:href="#1" y="2.171"/><use xlink:href="#6" y="4.342"/><use xlink:href="#8" y="6.513"/></svg><svg x="9292"><use xlink:href="#a"/><use xlink:href="#1" y="2.171"/><use xlink:href="#6" y="4.342"/><use xlink:href="#8" y="6.513"/></svg><svg x="9384"><use xlink:href="#a"/><use xlink:href="#1" y="2.171"/><use xlink:href="#6" y="4.342"/><use xlink:href="#8" y="6.513"/></svg><svg x="9476"><use xlink:href="#a"/><use xlink:href="#1" y="2.171"/><use xlink:href="#6" y="4.342"/><use xlink:href="#8" y="6.513"/></svg><svg x="9568"><use xlink:href="#a"/><use xlink:href="#1" y="2.171"/><use xlink:href="#6" y="4.342"/><use xlink:href="#8" y="6.513"/></svg><svg x="9660"><use xlink:href="#a"/><use xlink:href="#1" y="2.171"/><use xlink:href="#6" y="4.342"/><use xlink:href="#8" y="6.513"/></svg><svg x="9752"><use xlink:href="#a"/><use xlink:href="#1" y="2.171"/><use xlink:href="#6" y="4.342"/><use xlink:href="#8" y="6.513"/></svg><svg x="9844"><use xlink:href="#a"/><use xlink:href="#1" y="2.171"/><use xlink:href="#6" y="4.342"/><use xlink:href="#8" y="6.513"/></svg><svg x="9936"><use xlink:href="#a"/><use xlink:href="#1" y="2.171"/><use xlink:href="#6" y="4.342"/><use xlink:href="#8" y="6.513"/></svg><svg x="10028"><use xlink:href="#a"/><use xlink:href="#1" y="2.171"/><use xlink:href="#6" y="4.342"/><use xlink:href="#8" y="6.513"/></svg><svg x="10120"><use xlink:href="#a"/><use xlink:href="#1" y="2.171"/><use xlink:href="#6" y="4.342"/><use xlink:href="#8" y="6.513"/></svg><svg x="10212"><use xlink:href="#a"/><use xlink:href="#1" y="2.171"/><use xlink:href="#6" y="4.342"/><use xlink:href="#8" y="6.513"/></svg><svg x="10304"><use xlink:href="#a"/><use xlink:href="#1" y="2.171"/><use xlink:href="#6" y="4.342"/><use xlink:href="#8" y="6.513"/></svg><svg x="10396"><use xlink:href="#a"/><use xlink:href="#1" y="2.171"/><use xlink:href="#6" y="4.342"/><use xlink:href="#8" y="6.513"/></svg><svg x="10488"><use xlink:href="#a"/><use xlink:href="#1" y="2.171"/><use xlink:href="#6" y="4.342"/><use xlink:href="#8" y="6.513"/></svg><svg x="10580"><use xlink:href="#a"/><use xlink:href="#1" y="2.171"/><use xlink:href="#6" y="4.342"/><use xlink:href="#8" y="6.513"/></svg><svg x="10672"><use xlink:href="#a"/><use xlink:href="#1" y="2.171"/><use xlink:href="#6" y="4.342"/><use xlink:href="#8" y="6.513"/></svg><svg x="10764"><use xlink:href="#a"/><use xlink:href="#1" y="2.171"/><use xlink:href="#6" y="4.342"/><use xlink:href="#8" y="6.513"/></svg><svg x="10856"><use xlink:href="#a"/><use xlink:href="#1" y="2.171"/><use xlink:href="#6" y="4.342"/><use xlink:href="#8" y="6.513"/></svg><svg x="10948"><use xlink:href="#a"/><use xlink:href="#1" y="2.171"/><use xlink:href="#6" y="4.342"/><use xlink:href="#8" y="6.513"/></svg><svg x="11040"><use xlink:href="#a"/><use xlink:href="#1" y="2.171"/><use xlink:href="#6" y="4.342"/><use xlink:href="#8" y="6.513"/></svg><svg x="11132"><use xlink:href="#a"/><use xlink:href="#1" y="2.171"/><use xlink:href="#6" y="4.342"/><use xlink:href="#8" y="6.513"/></svg><svg x="11224"><use xlink:href="#a"/><use xlink:href="#1" y="2.171"/><use xlink:href="#6" y="4.342"/><use xlink:href="#8" y="6.513"/></svg><svg x="11316"><use xlink:href="#a"/><use xlink:href="#1" y="2.171"/><use xlink:href="#6" y="4.342"/><use xlink:href="#8" y="6.513"/></svg><svg x="11408"><use xlink:href="#a"/><use xlink:href="#1" y="2.171"/><use xlink:href="#6" y="4.342"/><use xlink:href="#8" y="6.513"/></svg><svg x="11500"><use xlink:href="#a"/><use xlink:href="#1" y="2.171"/><use xlink:href="#6" y="4.342"/><use xlink:href="#8" y="6.513"/></svg><svg x="11592"><use xlink:href="#a"/><use xlink:href="#1" y="2.171"/><use xlink:href="#6" y="4.342"/><use xlink:href="#8" y="6.513"/></svg><svg x="11684"><use xlink:href="#a"/><use xlink:href="#1" y="2.171"/><use xlink:href="#6" y="4.342"/><use xlink:href="#8" y="6.513"/></svg><svg x="11776"><use xlink:href="#a"/><use xlink:href="#1" y="2.171"/><use xlink:href="#6" y="4.342"/><use xlink:href="#8" y="6.513"/></svg><svg x="11868"><use xlink:href="#a"/><use xlink:href="#1" y="2.171"/><use xlink:href="#6" y="4.342"/><use xlink:href="#8" y="6.513"/></svg><svg x="11960"><use xlink:href="#a"/><use xlink:href="#1" y="2.171"/><use xlink:href="#6" y="4.342"/><use xlink:href="#8" y="6.513"/></svg><svg x="12052"><use xlink:href="#a"/><use xlink:href="#1" y="2.171"/><use xlink:href="#6" y="4.342"/><use xlink:href="#8" y="6.513"/></svg><svg x="12144"><use xlink:href="#a"/><use xlink:href="#1" y="2.171"/><use xlink:href="#6" y="4.342"/><use xlink:href="#8" y="6.513"/></svg><svg x="12236"><use xlink:href="#a"/><use xlink:href="#1" y="2.171"/><use xlink:href="#6" y="4.342"/><use xlink:href="#8" y="6.513"/></svg><svg x="12328"><use xlink:href="#a"/><use xlink:href="#1" y="2.171"/><use xlink:href="#6" y="4.342"/><use xlink:href="#8" y="6.513"/></svg><svg x="12420"><use xlink:href="#a"/><use xlink:href="#1" y="2.171"/><use xlink:href="#6" y="4.342"/><use xlink:href="#8" y="6.513"/></svg><svg x="12512"><use xlink:href="#a"/><use xlink:href="#1" y="2.171"/><use xlink:href="#6" y="4.342"/><use xlink:href="#8" y="6.513"/></svg><svg x="12604"><use xlink:href="#a"/><use xlink:href="#1" y="2.171"/><use xlink:href="#6" y="4.342"/><use xlink:href="#8" y="6.513"/></svg><svg x="12696"><use xlink:href="#a"/><use xlink:href="#1" y="2.171"/><use xlink:href="#6" y="4.342"/><use xlink:href="#8" y="6.513"/></svg><svg x="12788"><use xlink:href="#a"/><use xlink:href="#1" y="2.171"/><use xlink:href="#6" y="4.342"/><use xlink:href="#8" y="6.513"/></svg><svg x="12880"><use xlink:href="#a"/><use xlink:href="#1" y="2.171"/><use xlink:href="#6" y="4.342"/><use xlink:href="#8" y="6.513"/></svg><svg x="12972"><use xlink:href="#a"/><use xlink:href="#1" y="2.171"/><use xlink:href="#6" y="4.342"/><use xlink:href="#8" y="6.513"/></svg><svg x="13064"><use xlink:href="#a"/><use xlink:href="#1" y="2.171"/><use xlink:href="#6" y="4.342"/><use xlink:href="#8" y="6.513"/></svg><svg x="13156"><use xlink:href="#a"/><use xlink:href="#1" y="2.171"/><use xlink:href="#6" y="4.342"/><use xlink:href="#8" y="6.513"/></svg><svg x="13248"><use xlink:href="#a"/><use xlink:href="#1" y="2.171"/><use xlink:href="#6" y="4.342"/><use xlink:href="#8" y="6.513"/></svg><svg x="13340"><use xlink:href="#a"/><use xlink:href="#1" y="2.171"/><use xlink:href="#6" y="4.342"/><use xlink:href="#8" y="6.513"/></svg><svg x="13432"><use xlink:href="#a"/><use xlink:href="#1" y="2.171"/><use xlink:href="#6" y="4.342"/><use xlink:href="#8" y="6.513"/></svg><svg x="13524"><use xlink:href="#a"/><use xlink:href="#1" y="2.171"/><use xlink:href="#6" y="4.342"/><use xlink:href="#8" y="6.513"/></svg><svg x="13616"><use xlink:href="#a"/><use xlink:href="#1" y="2.171"/><use xlink:href="#6" y="4.342"/><use xlink:href="#8" y="6.513"/></svg><svg x="13708"><use xlink:href="#a"/><use xlink:href="#1" y="2.171"/><use xlink:href="#6" y="4.342"/><text y="8.183" class="j">⸨</text><path class="n" d="M1.002 6.513h12v2.171h-12z"/><text x="1.002" y="8.183" class="a"></text><text x="13.026" y="8.183" class="k">░░░░░░</text><text x="19.038" y="8.183" class="j">⸩</text><text x="21.042" y="8.183" class="j">⠸</text><text x="23.046" y="8.183" class="j">refresh-package-json:lodash:</text>0<text x="52.104" y="8.183" fill="#25bc24">timing</text><text x="59.118" y="8.183" class="m">action:finalize</text><text x="75.15" y="8.183" class="j">Completed</text><text x="85.17" y="8.183" class="j">in</text><text x="88.176" y="8.183" class="j">5ms</text></svg><svg x="13800"><use xlink:href="#a"/><use xlink:href="#b" x="-.004" y="6.488"/><use xlink:href="#1" y="2.171"/><use xlink:href="#6" y="4.342"/></svg><svg x="13892"><use xlink:href="#a"/><use xlink:href="#b" x="2.996" y="6.488"/><use xlink:href="#1" y="2.171"/><use xlink:href="#6" y="4.342"/>0<text y="8.183" class="o">npm</text></svg><svg x="13984"><use xlink:href="#a"/><use xlink:href="#b" x="7.996" y="6.488"/><use xlink:href="#1" y="2.171"/><use xlink:href="#6" y="4.342"/><use xlink:href="#9" y="6.513"/></svg><svg x="14076"><use xlink:href="#a"/><use xlink:href="#b" x="-.004" y="8.659"/><use xlink:href="#1" y="2.171"/><use xlink:href="#6" y="4.342"/><use xlink:href="#10" y="6.513"/></svg><svg x="14168"><use xlink:href="#a"/><use xlink:href="#b" x="7.996" y="8.659"/><use xlink:href="#1" y="2.171"/><use xlink:href="#6" y="4.342"/><use xlink:href="#10" y="6.513"/><use xlink:href="#9" y="8.684"/></svg><svg x="14260"><use xlink:href="#a"/><use xlink:href="#b" x="-.004" y="10.83"/><use xlink:href="#1" y="2.171"/><use xlink:href="#6" y="4.342"/><use xlink:href="#10" y="6.513"/><use xlink:href="#11" y="8.684"/></svg><svg x="14352"><use xlink:href="#a"/><use xlink:href="#b" x="-.004" y="13.001"/><use xlink:href="#1" y="2.171"/><use xlink:href="#6" y="4.342"/><use xlink:href="#10" y="6.513"/><use xlink:href="#11" y="8.684"/></svg><svg x="14444"><use xlink:href="#a"/><use xlink:href="#b" x="-.004" y="17.343"/><use xlink:href="#1" y="2.171"/><use xlink:href="#6" y="4.342"/><use xlink:href="#10" y="6.513"/><use xlink:href="#11" y="8.684"/><use xlink:href="#12" y="13.026"/><use xlink:href="#13" y="15.197"/></svg><svg x="14536"><use xlink:href="#a"/><use xlink:href="#b" x="-.004" y="17.343"/><use xlink:href="#1" y="2.171"/><use xlink:href="#6" y="4.342"/><use xlink:href="#10" y="6.513"/><use xlink:href="#11" y="8.684"/><use xlink:href="#12" y="13.026"/><use xlink:href="#13" y="15.197"/></svg><svg x="14628"><use xlink:href="#a"/><use xlink:href="#b" x="-.004" y="17.343"/><use xlink:href="#1" y="2.171"/><use xlink:href="#6" y="4.342"/><use xlink:href="#10" y="6.513"/><use xlink:href="#11" y="8.684"/><use xlink:href="#12" y="13.026"/><use xlink:href="#13" y="15.197"/></svg><svg x="14720"><use xlink:href="#a"/><use xlink:href="#b" x="-.004" y="17.343"/><use xlink:href="#1" y="2.171"/><use xlink:href="#6" y="4.342"/><use xlink:href="#10" y="6.513"/><use xlink:href="#11" y="8.684"/><use xlink:href="#12" y="13.026"/><use xlink:href="#13" y="15.197"/></svg><svg x="14812"><use xlink:href="#a"/><use xlink:href="#b" x="1.996" y="21.685"/><use xlink:href="#1" y="2.171"/><use xlink:href="#6" y="4.342"/><use xlink:href="#10" y="6.513"/><use xlink:href="#11" y="8.684"/><use xlink:href="#12" y="13.026"/><use xlink:href="#13" y="15.197"/><use xlink:href="#14" y="19.539"/><use xlink:href="#2" y="21.71"/></svg><svg x="14904"><use xlink:href="#a"/><use xlink:href="#b" x="1.996" y="21.685"/><use xlink:href="#1" y="2.171"/><use xlink:href="#6" y="4.342"/><use xlink:href="#10" y="6.513"/><use xlink:href="#11" y="8.684"/><use xlink:href="#12" y="13.026"/><use xlink:href="#13" y="15.197"/><use xlink:href="#14" y="19.539"/><use xlink:href="#2" y="21.71"/></svg><svg x="14996"><use xlink:href="#a"/><use xlink:href="#b" x="-.004" y="23.856"/><use xlink:href="#1" y="2.171"/><use xlink:href="#6" y="4.342"/><use xlink:href="#10" y="6.513"/><use xlink:href="#11" y="8.684"/><use xlink:href="#12" y="13.026"/><use xlink:href="#13" y="15.197"/><use xlink:href="#14" y="19.539"/><use xlink:href="#2" y="21.71"/></svg></svg></g></g></svg></svg>