<svg xmlns="http://www.w3.org/2000/svg" viewBox="0 0 495.2 495.2"><path fill="#d38c0d" d="M325.6 224.4L495.2 126 325.6 28.4l-168.8 99.2z"/><g fill="#efbb67"><path d="M170.4 224.4l168-97.6-168-98.4L0 126.8z"/><path d="M416 368.4l-168 98.4-168-98.4v-196L248 74l168 98.4z"/></g><path fill="#d38c0d" d="M248 74l168 98.4v196l-168 98.4"/><path fill="#efbb67" d="M326.4 314.8L495.2 218l-169.6-98.4L156 218z"/><path fill="#d38c0d" d="M170.4 316.4l168.8-99.2-168.8-97.6L0 218z"/><path fill="#704a0e" d="M248.8 270.8L416 172.4 248.8 74 78.4 172.4z"/><path fill="#513307" d="M248.8 270.8L416 172.4 248.8 74"/><path fill="#2d1c05" d="M248.8 270.8l36-21.6-36-20.8-36 20.8z"/><g fill="#0dd396"><path d="M368 379.6l40-23.2v-12.8l-40 23.2zM368 356.4l40-23.2v-12.8l-40 23.2zM368 333.2l40-23.2v-13.6l-40 24z"/></g></svg>