<svg xmlns="http://www.w3.org/2000/svg" viewBox="0 0 45 45" id="brazil"><defs><clipPath id="a"><path d="M0 36h36V0H0v36z"/></clipPath></defs><g clip-path="url(#a)" transform="matrix(1.25 0 0 -1.25 0 45)"><path d="M36 9a4 4 0 0 0-4-4H4a4 4 0 0 0-4 4v18a4 4 0 0 0 4 4h28a4 4 0 0 0 4-4V9z" fill="#009b3a"/><path d="M32.727 18L18 6.876 3.27 18 18 29.125 32.727 18z" fill="#fedf01"/><path d="M24.434 18.076a6.458 6.458 0 1 1-12.917 0 6.458 6.458 0 0 1 12.917 0" fill="#002776"/><path d="M12.277 21.113a6.406 6.406 0 0 1-.672-2.023c3.994.29 9.417-1.892 11.744-4.596.402.604.7 1.28.882 2.004-2.871 2.809-7.916 4.63-11.954 4.615" fill="#cbe9d4"/><path d="M13 16.767h-1v1h1v-1zM14 14.767h-1v1h1v-1z" fill="#88c9f9"/><path d="M16 16.767h-1v1h1v-1zM18 15.767h-1v1h1v-1zM22 13.767h-1v1h1v-1zM19 12.767h-1v1h1v-1zM22 18.767h-1v1h1v-1z" fill="#55acee"/><path d="M20 14.767h-1v1h1v-1z" fill="#3b88c3"/></g></svg>
