<svg xmlns="http://www.w3.org/2000/svg" viewBox="0 0 45 45" id="china"><defs><clipPath id="a"><path d="M0 36h36V0H0v36z"/></clipPath></defs><g clip-path="url(#a)" transform="matrix(1.25 0 0 -1.25 0 45)"><path d="M36 9a4 4 0 0 0-4-4H4a4 4 0 0 0-4 4v18a4 4 0 0 0 4 4h28a4 4 0 0 0 4-4V9z" fill="#de2910"/><path d="M7 25.049l.929-2.67 2.826-.06-2.253-1.706.819-2.707L7 19.52l-2.321-1.615.819 2.707-2.253 1.707 2.826.059.929 2.67zM13 28.472l.34-.688.759-.11-.549-.536.129-.756-.679.357-.679-.357.13.756-.55.536.76.11.339.688zM15 24.472l.34-.688.759-.11-.549-.536.129-.756-.679.357-.679-.357.13.756-.55.536.76.11.339.688zM15 20.472l.34-.688.759-.11-.549-.536.129-.756-.679.357-.679-.357.13.756-.55.536.76.11.339.688zM13 16.473l.34-.69.759-.11-.549-.534.129-.757-.679.357-.679-.357.13.757-.55.535.76.11.339.689z" fill="#ffde02"/></g></svg>
