<svg xmlns="http://www.w3.org/2000/svg" viewBox="0 0 45 45" id="earth"><Title>Earth</Title><defs><clipPath id="a"><path d="M0 36h36V0H0v36z"/></clipPath><clipPath id="b"><path d="M18 36C8.059 36 0 27.941 0 18S8.059 0 18 0s18 8.059 18 18-8.059 18-18 18z"/></clipPath></defs><g clip-path="url(#a)" transform="matrix(1.25 0 0 -1.25 0 45)"><path d="M36 18c0-9.941-8.059-18-18-18S0 8.059 0 18s8.059 18 18 18 18-8.059 18-18" fill="#88c9f9"/></g><g clip-path="url(#b)" transform="matrix(1.25 0 0 -1.25 0 45)"><path d="M3.627 28.952c-.45 2.93 2.195 4.156 3.607 4.47 1.412.314 2.776.62 2.933-.006.156-.628.311-1.46 1.173-1.148.862.314 3.043.56 4.063 1.342 1.02.783 2.244.787 3.264.473 1.02-.313 3.877-.227 3.25-1.167-.627-.94-1.825-.827-2.45-1.924-.628-1.099.171-1.826 1.033-1.826.865 0 1.71-.135 2.26.727.548.863-.383 2.463.324 2.357.706-.106 1.477-.866 2.03-2.043.547-1.176 1.408-.47 1.723-1.176.313-.705 2.04-2.039 1.177-1.804-.864.236-1.726.392-1.96-.47-.237-.863.388-1.726-.237-1.647-.627.08-.86-.089-1.725-.004-.862.083-1.333.631-2.039-.545-.705-1.175-1.254-1.96-1.567-2.509-.315-.549-.785-.86-.55-1.96.235-1.099-.628-.785-.628.156 0 .94-.548 1.098-1.253.942-.706-.157-1.803-.313-1.724-1.098.077-.784-.315-1.725.313-2.352.627-.629 1.33.076 1.723-.158.393-.237 1.525-.023 1.133-.416-.393-.39-1.76-.88-.976-1.509a4.831 4.831 0 0 1 1.893-.907c.313-.08.062.774 1.083 1.166 1.017.392 2.608 1.29 3 .584.391-.705.338-.595 1.75-.75 1.41-.156 1.79-.585 2.417-1.917.626-1.333.446-1.192 1.462-1.58 1.021-.394 1.678-.223.737-1.087-.94-.86-1.65-.814-2.199-1.833-.55-1.017-.153-1.73-1.25-2.75A20.755 20.755 0 0 0 24 4c-.618-.37-2.162-2.07-3.083-2.667-.834-.54-1.083 0-1.083 0s.256 1.667.964 2.372c.704.705 1.105 3.344.87 4.128-.235.783-1.36 1.02-1.75 1.333-.393.312-1.418 1.548-1.418 2.334 0 .784 1.71 2.81 1.71 2.81.218-1.089-1.039.328-1.627.523-.47.157-1.542 1.656-2.459 1.814-.916.16-1.363.7-2.068 1.25-.706.55-2.43 1.332-2.353 2.195.08.862-1.725 1.568-2.038 1.568-.314 0-1.019 0-1.647 1.098-.627 1.098-1.725 2.196-1.41 2.98.312.783.391 1.726.233 2.588-.156.862-1.332 1.176-1.567.941-.235-.236-1.489-1.335-1.647-.315" fill="#5c913b"/></g></svg>
