<svg xmlns="http://www.w3.org/2000/svg" viewBox="0 0 490.652 490.652" id="license"><path d="M456.607 9.904H34.04C15.269 9.904 0 25.17 0 43.945V310.17c0 18.77 15.269 34.039 34.04 34.039h260.642c-4.043-10.35-6.534-21.737-7.159-33.742l-253.974-.297.491-266.718 423.063.493V310.17c0 .279-.23.492-.495.492l-15.251-.019c-.637 11.942-3.111 23.263-7.138 33.565h22.389c18.777 0 34.045-15.27 34.045-34.039V43.945c-.001-18.775-15.268-34.041-34.046-34.041z"/><path d="M364.447 381.02c33.354 0 60.386-34.152 60.386-76.289 0-42.131-27.031-76.284-60.386-76.284-33.35 0-60.38 34.153-60.38 76.284 0 42.137 27.031 76.289 60.38 76.289zM81.087 118.345h149.561c9.273 0 16.776-7.499 16.776-16.772 0-9.271-7.504-16.775-16.776-16.775H81.087c-9.271 0-16.771 7.504-16.771 16.775 0 9.273 7.499 16.772 16.771 16.772zM415.167 177.061c0-9.273-7.505-16.779-16.776-16.779H81.087c-9.271 0-16.771 7.506-16.771 16.779 0 9.271 7.499 16.77 16.771 16.77h317.304c9.271 0 16.776-7.498 16.776-16.77zM81.087 235.768c-9.271 0-16.771 7.504-16.771 16.771 0 9.273 7.499 16.777 16.771 16.777h149.561c9.273 0 16.776-7.504 16.776-16.777 0-9.268-7.504-16.771-16.776-16.771H81.087zM415.425 374.452c-.065.082-23.295 26.869-55.728 23.081l40.331 81.577a2.93 2.93 0 0 0 2.637 1.639h.215a2.95 2.95 0 0 0 2.571-2.031l10.174-31.234a3.024 3.024 0 0 1 1.488-1.728 3.07 3.07 0 0 1 2.28-.13l30.977 10.88c.324.112.651.163.98.163.836 0 1.623-.348 2.195-.982.803-.9.964-2.18.441-3.244l-38.561-77.991zM313.653 374.598c-.049-.047-.118-.096-.185-.146l-38.561 77.973a2.953 2.953 0 0 0 .448 3.262 2.961 2.961 0 0 0 3.174.819l30.978-10.88c.328-.113.658-.16.982-.16.442 0 .884.096 1.294.29.706.36 1.245.987 1.493 1.741l10.173 31.221c.378 1.133 1.391 1.936 2.572 2.014h.21a2.95 2.95 0 0 0 2.642-1.621l26.206-53.01-16.755-33.893c-.066-.034-14.672-5.884-24.671-17.61z"/></svg>
