<svg xmlns="http://www.w3.org/2000/svg" viewBox="0 0 512 512" id="nicaragua"><Title>Nicaragua</Title><path d="M512 384c0 31.418-25.473 56.889-56.889 56.889H56.89C25.472 440.889 0 415.417 0 384V128c0-31.418 25.472-56.889 56.889-56.889H455.11C486.53 71.111 512 96.584 512 128v256z" fill="#265fb5"/><path d="M512 327.111H0V184.89h512V327.11z" fill="#eee"/><path d="M320.811 256c0 35.797-29.014 64.811-64.811 64.811-35.783 0-64.811-29.014-64.811-64.811s29.027-64.811 64.811-64.811c35.797 0 64.811 29.013 64.811 64.811" fill="#a9bf4c"/><path d="M312.889 256c0 31.418-25.473 56.889-56.889 56.889S199.111 287.416 199.111 256s25.473-56.889 56.889-56.889 56.889 25.471 56.889 56.889" fill="#eee"/><path d="M209.891 286.649l45.909-79.517 45.909 79.517H209.89z" fill="#265fb5"/><path d="M215.04 283.591l40.818-70.685 40.803 70.685H215.04z" fill="#55acee"/><path d="M215.04 283.591l9.841-17.052 61.483-.783 10.297 17.835H215.04z" fill="#bbddf5"/><path d="M222.891 272.441l15.331-12.445 6.67 7.553 5.774-6.215 4.893 4.892 4.665-5.12 5.561 5.12 5.106-5.334 4.665 5.334 4.451-4.892 7.325 9.102 1.338 2.674s-7.78 1.55-18.446.669c-10.667-.896-16.882 1.55-25.33 2.66-8.448 1.109-23.553-1.109-23.553-1.109l1.55-2.889z" fill="#5c913b"/><g fill="#e2f09f"><path d="M237.995 262.67l10.226 11.107-5.12.442-5.774-8.434.668-3.115zM250.226 263.553l8.22 7.338-3.782.654-3.996-5.546-.442-2.446zM260.665 263.111l7.111 6.67L266 270.89l-5.774-6.229.44-1.55zM269.995 263.111l-2.888 2.66 1.338 1.565 1.55-4.225zM278.884 263.339l-3.328 4.224 1.109 1.99 2.446-4.664-.227-1.55z"/></g><path d="M256.426 233.671l.939 13.227 7.566-10.867-5.675 11.805 11.805-5.66-10.851 7.553 13.213.939-13.213.952 10.851 7.553-11.805-5.66 5.675 11.805-7.566-10.867-.939 13.226-.939-13.226-7.566 10.867 5.675-11.805-11.805 5.66 10.851-7.553-13.212-.953 13.212-.938-10.85-7.553 11.804 5.66-5.675-11.805 7.566 10.866.94-13.226z" fill="#bbddf5"/><path d="M256 244.665l-2.66 2.66s.654 4.011.441 4.679C253.554 252.658 256 256 256 256l3.327-3.996-.88-5.334-2.447-2.005z" fill="#dd2e44"/><path d="M257.28 240.071c10.894 0 17.109 5.334 17.109 5.334l-3.996-7.111s-6.443-4.893-13.995-4.893c-7.567 0-16 6.001-16 6.001l-3.783 7.553s9.771-6.884 20.665-6.884" fill="#269"/><path d="M257.28 240.071c10.894 0 17.109 5.334 17.109 5.334l-2.888-5.106s-7.78-4.665-15.331-4.665-16.896 5.987-16.896 5.987l-2.66 5.334c.001 0 9.772-6.884 20.666-6.884" fill="#ffcc4d"/><path d="M257.28 240.071c10.894 0 17.109 5.334 17.109 5.334l-2.005-3.327s-5.988-4.224-16.214-3.783c-7.553 0-18.005 5.561-18.005 5.561l-1.55 3.1c0-.001 9.771-6.885 20.665-6.885" fill="#dd2e44"/><g fill="#eee"><path d="M264.291 322.873h-14.165V309.29h14.165v13.582zM247.865 203.975h-10.183l-5.106-12.459 10.198-1.137 5.091 13.596zM271.075 209.635l-6.784-2.261 3.385-16.426 13.028 1.137-9.629 17.55zM209.934 279.281l-19.811 4.523-.57-13.583 19.812-2.83.569 11.89zM215.04 293.433l-16.426 6.812-3.954-10.766 15.289-5.106 5.091 9.06zM324.309 280.989l-18.105-5.091v-9.63l20.366-2.83-2.261 17.55zM315.306 299.663l-16.981-7.937 5.646-10.182 18.703 5.66-7.368 12.459z"/></g></svg>
