<svg width='100px' height='100px' xmlns="http://www.w3.org/2000/svg" xmlns:xlink="http://www.w3.org/1999/xlink" id="verdaccio"><defs><path d="M48 17.6L32.8 48H24L.4.8h15.2l12.8 25.6 4.4-8.8H48z" id="a"/><filter id="b" filterUnits="objectBoundingBox" height="140.3%" width="139.9%" y="-11.7%" x="-20%"><feGaussianBlur stdDeviation="2.5"/></filter><path d="M50.8 12H35.6L41.2.8h15.2L50.8 12z" id="c"/><filter id="d" filterUnits="objectBoundingBox" height="269.6%" width="191.3%" y="-49.1%" x="-45.7%"><feGaussianBlur stdDeviation="2.5"/></filter><path d="M32.8 48H24L.4.8h15.2l20.377 40.89L32.8 48z" id="e"/></defs><path fill="none" d="M-1-1h582v402H-1z"/><g stroke="null" fill-rule="evenodd" fill="none"><use transform="translate(-37.027 -40.362) scale(1.71429)" x="22.366" y="28.311" xlink:href="#a" filter="url(#b)" fill="#000"/><use transform="translate(-37.027 -40.362) scale(1.71429)" x="22.366" y="28.311" xlink:href="#a" fill="#405236"/><path stroke="#405236" d="M80.27 40.4H58.816L50 58.028 26.785 11.6H5.33l38.4 76.8h12.542l24-48z" stroke-width="2.4"/><use transform="translate(-37.027 -40.362) scale(1.71429)" x="22.366" y="28.311" xlink:href="#c" filter="url(#d)" fill="#000"/><use transform="translate(-37.027 -40.362) scale(1.71429)" x="22.366" y="28.311" xlink:href="#c" fill="#CD4000"/><path stroke="#CD4000" d="M87.128 26.686L94.671 11.6H73.215l-7.543 15.086h21.456z" stroke-width="2.4"/><use transform="translate(-37.027 -40.362) scale(1.71429)" x="22.366" y="28.311" xlink:href="#e" fill="#4A5E3F"/><path stroke="#405236" d="M56.274 88.4l4.415-8.763L26.783 11.6H5.33l38.4 76.8h12.547-.002z" stroke-width="2.4"/><path stroke="#CD4000" stroke-linecap="square" stroke-width="2.4" d="M65.771 11.6h26.094m-32.95 6.857h26.092m-32.95 8.229H78.15"/></g></svg>
