<svg width="301" height="100" viewBox="0 0 301 100" fill="none" xmlns="http://www.w3.org/2000/svg">
<g clip-path="url(#clip0)">
<path d="M117.661 61.3566C118.365 59.8246 119.221 58.12 120.229 56.243L132.071 34.132H134.493L117.951 64.4H116.129L112.361 34.132H114.432L116.854 53.8C117.213 56.795 117.454 59.3139 117.579 61.3566H117.661ZM140.269 64.8141C137.881 64.8141 136.018 64.0618 134.679 62.5574C133.341 61.0392 132.671 58.9275 132.671 56.2223C132.671 53.7241 133.161 51.3294 134.141 49.0383C135.121 46.7471 136.467 44.9253 138.178 43.5726C139.903 42.22 141.801 41.5437 143.871 41.5437C145.445 41.5437 146.701 41.9647 147.639 42.8066C148.578 43.6486 149.047 44.7941 149.047 46.2434C149.047 48.7415 147.916 50.6462 145.652 51.9574C143.402 53.2686 140.055 53.9242 135.611 53.9242H134.928C134.845 54.5315 134.804 55.2078 134.804 55.9531C134.804 58.2305 135.314 59.9695 136.336 61.1703C137.357 62.3573 138.827 62.9508 140.745 62.9508C142.567 62.9508 144.472 62.447 146.459 61.4394V63.3855C144.527 64.3379 142.464 64.8141 140.269 64.8141ZM143.623 43.3242C141.815 43.3242 140.131 44.1247 138.571 45.7258C137.026 47.313 135.908 49.4385 135.218 52.1023H136.232C143.368 52.1023 146.936 50.2391 146.936 46.5125C146.936 45.5878 146.632 44.8286 146.025 44.2351C145.431 43.6279 144.631 43.3242 143.623 43.3242ZM164.533 41.5023C165.486 41.5023 166.334 41.599 167.08 41.7922L166.645 43.7176C165.996 43.5105 165.216 43.407 164.305 43.407C163.008 43.407 161.773 43.8487 160.6 44.732C159.426 45.6154 158.371 46.9404 157.432 48.707C156.494 50.4737 155.803 52.3853 155.362 54.4418L153.291 64.4H151.263L156.045 41.8957H157.701L157.101 46.1191H157.225C158.233 44.8217 159.081 43.8901 159.771 43.3242C160.462 42.7445 161.193 42.296 161.966 41.9785C162.753 41.6611 163.608 41.5023 164.533 41.5023ZM178.901 41.5437C182.076 41.5437 184.001 43.0551 184.677 46.0777H184.76C184.926 45.1668 185.913 40.5362 187.721 32.1859H189.77L182.938 64.4H181.241L182.172 58.7273H182.048C179.66 62.7852 176.734 64.8141 173.27 64.8141C169.392 64.8141 167.452 62.2331 167.452 57.0711C167.452 54.4073 167.942 51.8539 168.922 49.4109C169.916 46.968 171.282 45.0495 173.021 43.6555C174.761 42.2476 176.72 41.5437 178.901 41.5437ZM173.746 62.9508C174.974 62.9508 176.203 62.5229 177.431 61.6672C178.673 60.7977 179.778 59.6383 180.744 58.1891C181.724 56.726 182.462 55.1319 182.959 53.4066C183.456 51.6676 183.704 50.2184 183.704 49.059C183.704 47.3199 183.276 45.9328 182.421 44.8976C181.579 43.8487 180.419 43.3242 178.943 43.3242C177.231 43.3242 175.685 43.897 174.305 45.0426C172.925 46.1881 171.793 47.8651 170.91 50.0734C170.026 52.268 169.585 54.5246 169.585 56.8434C169.585 60.915 170.972 62.9508 173.746 62.9508ZM202.379 41.5437C205.581 41.5437 207.506 43.0551 208.155 46.0777H208.279L209.5 41.8957H211.157L206.416 64.4H204.718L205.65 58.7273H205.525C204.366 60.6872 203.076 62.1917 201.654 63.2406C200.232 64.2896 198.597 64.8141 196.747 64.8141C192.869 64.8141 190.93 62.2331 190.93 57.0711C190.93 54.3521 191.447 51.7573 192.482 49.2867C193.518 46.8161 194.898 44.9115 196.623 43.5726C198.362 42.22 200.281 41.5437 202.379 41.5437ZM197.223 62.9508C198.452 62.9508 199.673 62.5229 200.888 61.6672C202.116 60.8115 203.214 59.6659 204.18 58.2305C205.16 56.795 205.905 55.2078 206.416 53.4687C206.926 51.7297 207.182 50.2598 207.182 49.059C207.182 47.9686 207.002 46.9956 206.643 46.1398C206.285 45.2703 205.753 44.5871 205.049 44.0902C204.345 43.5796 203.469 43.3242 202.42 43.3242C200.708 43.3242 199.163 43.8901 197.782 45.0219C196.402 46.1536 195.27 47.8513 194.387 50.1148C193.504 52.3646 193.062 54.6074 193.062 56.8434C193.062 58.9413 193.407 60.4871 194.097 61.4809C194.787 62.4608 195.829 62.9508 197.223 62.9508ZM222.171 64.8141C219.769 64.8141 217.871 64.0549 216.477 62.5367C215.097 61.0047 214.407 58.8861 214.407 56.1809C214.407 53.5171 214.911 51.0258 215.918 48.707C216.94 46.3745 218.313 44.6009 220.038 43.3863C221.764 42.1579 223.765 41.5437 226.042 41.5437C227.892 41.5437 229.555 41.8405 231.032 42.434L230.452 44.2973C228.975 43.6486 227.471 43.3242 225.939 43.3242C224.158 43.3242 222.55 43.8556 221.115 44.9184C219.693 45.9811 218.575 47.5131 217.761 49.5144C216.947 51.5157 216.539 53.7241 216.539 56.1394C216.539 58.3202 217.043 60.004 218.051 61.191C219.072 62.3642 220.514 62.9508 222.378 62.9508C223.358 62.9508 224.262 62.8611 225.09 62.6816C225.932 62.5022 226.843 62.1848 227.823 61.7293V63.634C226.222 64.4207 224.338 64.8141 222.171 64.8141ZM240.555 64.8141C238.154 64.8141 236.256 64.0549 234.862 62.5367C233.482 61.0047 232.791 58.8861 232.791 56.1809C232.791 53.5171 233.295 51.0258 234.303 48.707C235.324 46.3745 236.697 44.6009 238.423 43.3863C240.148 42.1579 242.149 41.5437 244.427 41.5437C246.276 41.5437 247.939 41.8405 249.416 42.434L248.836 44.2973C247.36 43.6486 245.855 43.3242 244.323 43.3242C242.543 43.3242 240.935 43.8556 239.499 44.9184C238.078 45.9811 236.96 47.5131 236.145 49.5144C235.331 51.5157 234.924 53.7241 234.924 56.1394C234.924 58.3202 235.428 60.004 236.435 61.191C237.457 62.3642 238.899 62.9508 240.762 62.9508C241.742 62.9508 242.646 62.8611 243.474 62.6816C244.316 62.5022 245.227 62.1848 246.207 61.7293V63.634C244.606 64.4207 242.722 64.8141 240.555 64.8141ZM252.666 64.4H250.638L255.42 41.8957H257.407L252.666 64.4ZM256.31 36.1195C256.31 35.3604 256.462 34.7531 256.766 34.2976C257.069 33.8422 257.483 33.6144 258.008 33.6144C258.795 33.6144 259.188 34.1113 259.188 35.1051C259.188 35.8918 259.036 36.5129 258.732 36.9684C258.429 37.4238 258.035 37.6516 257.552 37.6516C257.152 37.6516 256.842 37.5204 256.621 37.2582C256.414 36.9822 256.31 36.6026 256.31 36.1195ZM272.355 41.4609C274.839 41.4609 276.758 42.2131 278.111 43.7176C279.477 45.2082 280.16 47.2716 280.16 49.9078C280.16 52.6268 279.663 55.1733 278.67 57.5473C277.69 59.9074 276.344 61.7086 274.632 62.9508C272.921 64.193 270.947 64.8141 268.711 64.8141C266.172 64.8141 264.239 64.0618 262.914 62.5574C261.603 61.0392 260.948 58.8723 260.948 56.0566C260.948 53.4204 261.451 50.9499 262.459 48.6449C263.467 46.34 264.826 44.5664 266.538 43.3242C268.249 42.082 270.188 41.4609 272.355 41.4609ZM272.189 43.2414C270.478 43.2414 268.939 43.7866 267.573 44.8769C266.206 45.9535 265.116 47.5062 264.302 49.5351C263.487 51.5503 263.08 53.6896 263.08 55.9531C263.08 60.6734 265.026 63.0336 268.918 63.0336C270.671 63.0336 272.224 62.5022 273.577 61.4394C274.943 60.3629 276.026 58.7894 276.827 56.7191C277.641 54.635 278.048 52.3508 278.048 49.8664C278.048 47.7409 277.545 46.1053 276.537 44.9598C275.53 43.8142 274.08 43.2414 272.189 43.2414Z" fill="#405236"/>
</g>
<path opacity="0.10111" d="M93 49V55.597" stroke="#0F5200" stroke-width="1.6" stroke-linecap="square"/>
<g filter="url(#filter0_d)">
<path fill-rule="evenodd" clip-rule="evenodd" d="M75 45.1L59.8 75.5H51L27.4 28.3L42.6 28.3L55.4 53.9L59.8 45.1H75Z" fill="#405236"/>
<path d="M56.4733 54.4366L60.5416 46.3H73.0584L59.0584 74.3H51.7416L29.3416 29.5H41.8584L54.3267 54.4366L55.4 56.5833L56.4733 54.4366Z" stroke="#405236" stroke-width="2.4"/>
</g>
<g filter="url(#filter1_d)">
<path fill-rule="evenodd" clip-rule="evenodd" d="M77.8 39.5H62.6L68.2 28.3L83.4 28.3L77.8 39.5Z" fill="#CD4000"/>
<path d="M81.4584 29.5L77.0584 38.3H64.5416L68.9416 29.5H81.4584Z" stroke="#CD4000" stroke-width="2.4"/>
</g>
<path d="M61.6351 69.188L59.0607 74.3H51.7416L29.3416 29.5H41.8572L61.6351 69.188Z" fill="#4A5E3F" stroke="#405236" stroke-width="2.4"/>
<path d="M64.6 29.5H79.8211" stroke="#CD4000" stroke-width="2.4" stroke-linecap="square"/>
<path d="M60.6 33.5H75.8211" stroke="#CD4000" stroke-width="2.4" stroke-linecap="square"/>
<path d="M56.6 38.3H71.8211" stroke="#CD4000" stroke-width="2.4" stroke-linecap="square"/>
<defs>
<filter id="filter0_d" x="22.4" y="27.3" width="57.6" height="57.2" filterUnits="userSpaceOnUse" color-interpolation-filters="sRGB">
<feFlood flood-opacity="0" result="BackgroundImageFix"/>
<feColorMatrix in="SourceAlpha" type="matrix" values="0 0 0 0 0 0 0 0 0 0 0 0 0 0 0 0 0 0 127 0"/>
<feOffset dy="4"/>
<feGaussianBlur stdDeviation="2.5"/>
<feColorMatrix type="matrix" values="0 0 0 0 0 0 0 0 0 0 0 0 0 0 0 0 0 0 0.0906646 0"/>
<feBlend mode="normal" in2="BackgroundImageFix" result="effect1_dropShadow"/>
<feBlend mode="normal" in="SourceGraphic" in2="effect1_dropShadow" result="shape"/>
</filter>
<filter id="filter1_d" x="57.6" y="27.3" width="30.8" height="21.2" filterUnits="userSpaceOnUse" color-interpolation-filters="sRGB">
<feFlood flood-opacity="0" result="BackgroundImageFix"/>
<feColorMatrix in="SourceAlpha" type="matrix" values="0 0 0 0 0 0 0 0 0 0 0 0 0 0 0 0 0 0 127 0"/>
<feOffset dy="4"/>
<feGaussianBlur stdDeviation="2.5"/>
<feColorMatrix type="matrix" values="0 0 0 0 0 0 0 0 0 0 0 0 0 0 0 0 0 0 0.0906646 0"/>
<feBlend mode="normal" in2="BackgroundImageFix" result="effect1_dropShadow"/>
<feBlend mode="normal" in="SourceGraphic" in2="effect1_dropShadow" result="shape"/>
</filter>
<clipPath id="clip0">
<rect x="108.2" y="19.4" width="173" height="57" fill="white"/>
</clipPath>
</defs>
</svg>
